<svg width="200" height="50" fill="none" xmlns="http://www.w3.org/2000/svg"><path d="M18 40.64h21.79v4.52H18v-4.52zm157.58-14.51l6.87-7.58h-5.12l-5.63 6.3v-6.3h-4.08v15.93h4.1v-6.71l6.02 6.71H183l-7.42-8.35zM42.19 27.18c-.11 3-.49 3.57-2.15 3.57v3.74h.62c4.17 0 5.16-2.15 5.31-6.94l.18-5.3H50v12.23h4.08V18.55H42.47l-.28 8.63zm-17.71 2.74h8.6l1.43 4.56h4.77l-6.43-19.16c-.62-1.85-1.34-3.32-3.8-3.32s-3.21 1.47-3.87 3.32l-6.74 19.16h4.48l1.56-4.56zM28.84 17h.11l2.88 9.08h-6.06L28.84 17zm95.31 3.81h-4.55v-4.5h10.56v-4h-14.84v22.17h8.83c4.89 0 7.7-2.44 7.7-6.9 0-4.23-2.85-6.77-7.7-6.77zm-.21 9.66h-4.34v-5.76h4.34c2.26 0 3.53 1 3.53 2.88s-1.27 2.88-3.53 2.88zM83.59 18.18v-5.9h-4.07v5.9a8.07 8.07 0 00-7.8 8.32 8.08 8.08 0 007.8 8.35v6h4.08v-6a8.07 8.07 0 007.8-8.35 8 8 0 00-7.81-8.32zM79.53 31a4.14 4.14 0 01-3.67-4.5 4.19 4.19 0 013.67-4.5v9zm4.08 0v-9a4.19 4.19 0 013.67 4.5 4.16 4.16 0 01-3.67 4.5zm23.08-1.41v-5.37c0-3.92-2.49-6.37-6.67-6.37s-6.62 2.6-6.82 5.31h4.13c.14-.58.76-1.61 2.68-1.61a2.327 2.327 0 011.967.685 2.336 2.336 0 01.633 1.985h-4c-3.62 0-5.77 1.91-5.77 5.07a5.391 5.391 0 005.74 5.58A5.18 5.18 0 00103 32.8a3.447 3.447 0 003.28 1.68h1.41V30.8c-.69 0-1-.33-1-1.21zm-4.08-1a2.79 2.79 0 01-3 2.9c-1.47 0-2.63-.53-2.63-2.12s1.29-1.82 2.38-1.82h3.25v1.04zm-38.37-5.2h-2.93v-4.84h-4.08v15.93h7.08c4.43 0 6-2.88 6-5.6.02-3.51-2.18-5.49-6.07-5.49zm-.3 7.61h-2.63v-4h2.63c1.41 0 2.26.64 2.26 2 0 1.36-.81 2-2.26 2zm83.48-1.41v-5.37c0-3.92-2.49-6.37-6.67-6.37s-6.62 2.6-6.82 5.31h4.13c.14-.58.76-1.61 2.68-1.61a2.327 2.327 0 011.967.685 2.336 2.336 0 01.633 1.985h-4c-3.62 0-5.77 1.91-5.77 5.07a5.388 5.388 0 005.74 5.58 5.184 5.184 0 004.47-2.07 3.446 3.446 0 003.22 1.68h1.41V30.8c-.71 0-.99-.33-.99-1.21zm-4.06-1a2.798 2.798 0 01-3 2.9c-1.47 0-2.63-.53-2.63-2.12s1.29-1.82 2.38-1.82h3.25v1.04zm17.09-4.11h-5.63v-5.93h-4.08v15.94h4.08v-6.28h5.63v6.27h4.08V18.55h-4.08v5.93z" fill="#EF3124"/></svg>