<svg width="200" height="50" fill="none" xmlns="http://www.w3.org/2000/svg"><path d="M42.57 8.5a13.84 13.84 0 1013.84 13.84A13.831 13.831 0 0042.57 8.5zm-2 19.71l-1 3a9.52 9.52 0 01.06-18l1 3a6.19 6.19 0 00-4.21 5.93 6 6 0 004.17 6.07h-.02zm4.72 3.13l-1-3.06a6.28 6.28 0 00.06-11.93l1-3.06a9.49 9.49 0 01-.13 18.05h.07z" fill="#00BEF0"/><path d="M66.24 45.44h-2.17v-6.38h3.76v.64h-3v2h1.4c1.28 0 2.11.51 2.11 1.79v.06c0 1.25-.83 1.89-2.1 1.89zm0-.57c1 0 1.34-.45 1.34-1.21v-.06c0-.77-.45-1.21-1.4-1.21h-1.35v2.49l1.41-.01zm2.81-.7c0-1.08 1.15-1.47 2.36-1.47h.7v-.32c0-.77-.26-1.08-1-1.08s-1 .26-1.08.83h-.77a1.649 1.649 0 011.85-1.47 1.52 1.52 0 011.72 1.66v3.06H72v-.58a1.65 1.65 0 01-1.47.7c-.78 0-1.53-.38-1.53-1.34l.05.01zm3.06-.32v-.57h-.64c-1 0-1.59.26-1.59.89s.26.77.89.77 1.34-.4 1.34-1.1v.01zm5-.45h-2.3v2.1H74v-4.66h.77v2h2.3v-2h.77v4.66h-.77l.04-2.1zm2.81-.32v2.36h-.77v-4.66h.77v2.17l1.91-2.17h.89l-2 2.17 2.17 2.49H82l-2.08-2.36zm89.34-18.25l1.53 1.85a7.004 7.004 0 01-5.17 2.11 8.078 8.078 0 01-3.57-.7 5.828 5.828 0 01-3.05-5.56c0-3.76 2.55-6.57 6.32-6.57 4.21 0 6.25 3.13 5.93 7.21h-9.57a3.198 3.198 0 001.47 2.49 4.681 4.681 0 002.62.64 4.77 4.77 0 003.49-1.47zm-7.46-3.89h6.76a3.179 3.179 0 00-3.32-2.74 3.381 3.381 0 00-3.44 2.74zm-64.3 7.53h3.44l-5.42-6.32 5.36-5.93H97.5l-4.08 4.72H92.2v-4.72h-2.61V28.4h2.61v-4.84h1.21l4.09 4.91zm11.29-10a3.664 3.664 0 00-2.696 1.14 3.675 3.675 0 00-1.004 2.75 3.67 3.67 0 003.7 3.89 3.595 3.595 0 002.684-1.137 3.595 3.595 0 00.956-2.753 3.595 3.595 0 00-.948-2.767 3.583 3.583 0 00-2.692-1.143v.02zm.45-2.49c3.44 0 6 2.68 6 6.38 0 3.7-2.49 6.44-6 6.44a5.233 5.233 0 01-4-1.59v6.38h-2.64V16.22h2.62v1.47a4.84 4.84 0 014.01-1.69l.01-.02zm34.7.26H133v2.42h4.15v9.74h2.68v-9.7H144v-2.48l-.06.02zm-56.2 0H76.83v2.42H81v9.74h2.68v-9.7h4.12v-2.48l-.06.02zm-14.17 6.1a3.83 3.83 0 10-7.66 0 3.83 3.83 0 007.66 0zm-10.33 0a6.57 6.57 0 116.57 6.44 6.321 6.321 0 01-6.57-6.44zm93.65-6.12V28.4h-2.62v-7.84l-6.38 7.85h-2.11V16.22h2.62v7.91l6.38-7.85h2.11v-.06zm-25.65 12.25h-2.62V16.22h2.62v12.25zm-6.83-4.21a1.763 1.763 0 00-1.79-1.85H120v3.76h2.68a1.778 1.778 0 001.74-1.91h-.01zm2.68 0a4.08 4.08 0 01-1.256 3.03 4.066 4.066 0 01-3.084 1.12h-5.42V16.22H120v4h3a3.87 3.87 0 014.1 4.04h-.01z" fill="#000"/></svg>