<svg width="48" height="48" fill="none" xmlns="http://www.w3.org/2000/svg"><path d="M46.054 11.676H1.946a.648.648 0 110-1.298h44.108a.649.649 0 010 1.298zM8.733 8.78a2.294 2.294 0 110-4.587 2.294 2.294 0 010 4.587zm0-3.29a.996.996 0 100 1.993.996.996 0 000-1.993zm6.51 3.348a2.351 2.351 0 110-4.703 2.351 2.351 0 010 4.703zm0-3.406a1.054 1.054 0 100 2.108 1.054 1.054 0 000-2.108z" fill="#CE1126"/><path d="M44.756 46.703H3.243a1.946 1.946 0 01-1.946-1.946V3.243a1.946 1.946 0 011.946-1.946h41.513a1.946 1.946 0 011.946 1.946v41.514a1.946 1.946 0 01-1.946 1.946zM3.243 2.595a.649.649 0 00-.649.648v41.514a.649.649 0 00.649.649h41.513a.649.649 0 00.649-.65V3.244a.648.648 0 00-.649-.648H3.243z" fill="#CE1126"/><path d="M40.865 7.135h-19.46a.649.649 0 010-1.297h19.46a.648.648 0 110 1.297zM27.608 34.456a.644.644 0 01-.3-.078L24 32.644l-3.308 1.736a.65.65 0 01-.941-.684l.632-3.682-2.675-2.604a.648.648 0 01.36-1.107l3.696-.537 1.652-3.349a.674.674 0 011.162 0l1.654 3.35 3.697.536a.648.648 0 01.36 1.107l-2.676 2.607.632 3.681a.648.648 0 01-.64.759h.003zM24 31.265c.105 0 .208.026.301.075l2.445 1.284-.466-2.724a.65.65 0 01.186-.574l1.978-1.928-2.733-.397a.648.648 0 01-.489-.354L24 24.168l-1.223 2.477a.649.649 0 01-.488.355l-2.733.397 1.979 1.928a.65.65 0 01.186.574l-.466 2.724 2.444-1.285a.644.644 0 01.3-.073z" fill="#CE1126"/><path d="M24 39.568A11.027 11.027 0 1135.027 28.54 11.04 11.04 0 0124 39.568zm0-20.757a9.73 9.73 0 109.73 9.73A9.74 9.74 0 0024 18.81z" fill="#CE1126"/></svg>