<svg width="48" height="48" fill="none" xmlns="http://www.w3.org/2000/svg"><path d="M37.473 29.678H10.528A8.794 8.794 0 018.245 12.39v-.113a10.975 10.975 0 0120.562-5.352 6.265 6.265 0 011.445-.176 6.923 6.923 0 016.69 5.343h.53a8.794 8.794 0 110 17.587zM19.225 2.595a9.695 9.695 0 00-9.684 9.684c0 .139.01.275.019.41l.01.173a.649.649 0 01-.518.673 7.496 7.496 0 001.476 14.846h26.945a7.497 7.497 0 000-14.993h-1.069a.65.65 0 01-.641-.554 5.616 5.616 0 00-5.513-4.786 5.501 5.501 0 00-1.592.26.648.648 0 01-.766-.33 9.632 9.632 0 00-8.667-5.383z" fill="#CE1126"/><path d="M39.476 40.512h-4.545a3.845 3.845 0 01-3.841-3.84V29.03a.65.65 0 011.297 0v7.641a2.546 2.546 0 002.544 2.544h4.545a.648.648 0 110 1.297z" fill="#CE1126"/><path d="M42.185 43.22a3.356 3.356 0 11.001-6.713 3.356 3.356 0 010 6.713zm0-5.416a2.059 2.059 0 10.001 4.118 2.059 2.059 0 000-4.118zM24 46.703a3.357 3.357 0 110-6.715 3.357 3.357 0 010 6.715zm0-5.417a2.06 2.06 0 100 4.121 2.06 2.06 0 000-4.121zm-10.93-.774H8.523a.649.649 0 010-1.297h4.545a2.546 2.546 0 002.544-2.544V29.03a.65.65 0 011.297 0v7.642a3.845 3.845 0 01-3.84 3.84z" fill="#CE1126"/><path d="M5.815 43.22a3.357 3.357 0 11.001-6.713 3.357 3.357 0 010 6.713zm0-5.416a2.059 2.059 0 10.001 4.118 2.059 2.059 0 000-4.118zM24 41.286a.649.649 0 01-.648-.649v-11.61a.649.649 0 111.297 0v11.61a.649.649 0 01-.649.649z" fill="#CE1126"/></svg>