<svg width="48" height="48" fill="none" xmlns="http://www.w3.org/2000/svg"><path d="M24 46.703A22.703 22.703 0 1146.702 24 22.729 22.729 0 0124 46.703zm0-44.108A21.405 21.405 0 1045.405 24 21.43 21.43 0 0024 2.595z" fill="#CE1126"/><path d="M24 41.513A17.513 17.513 0 1141.513 24 17.533 17.533 0 0124 41.513zm0-33.73A16.216 16.216 0 1040.216 24 16.234 16.234 0 0024 7.784z" fill="#CE1126"/><path d="M26.023 28.358H22.07V32h-1.31v-3.642h-2.192V27.23h2.192v-1.6h-2.192v-1.117h2.192v-8.154h5.328c1.647 0 2.932.42 3.856 1.257.931.83 1.397 1.962 1.397 3.395 0 1.46-.451 2.596-1.354 3.405-.902.802-2.191 1.207-3.867 1.214h-4.05v1.6h3.953v1.128zm-3.953-3.845h4.018c1.246 0 2.213-.301 2.9-.903.688-.608 1.032-1.468 1.032-2.578 0-1.074-.337-1.926-1.01-2.556-.666-.63-1.587-.96-2.761-.989H22.07v7.026zM24 5.647a.649.649 0 01-.648-.649v-.956a.649.649 0 111.297 0v.956a.649.649 0 01-.649.65zm0 38.96a.649.649 0 01-.648-.649v-.957a.649.649 0 111.297 0v.957a.649.649 0 01-.649.649zm19.958-19.958h-.956a.648.648 0 110-1.298h.956a.649.649 0 010 1.298zm-38.96 0h-.956a.648.648 0 110-1.298h.956a.649.649 0 010 1.298z" fill="#CE1126"/><path d="M43.958 24.649h-.956a.648.648 0 110-1.298h.956a.649.649 0 010 1.298zm-38.96 0h-.956a.648.648 0 110-1.298h.956a.649.649 0 010 1.298zM38.112 38.76a.645.645 0 01-.459-.19l-.676-.675a.65.65 0 11.918-.918l.675.676a.65.65 0 01-.458 1.108zM10.563 11.213a.648.648 0 01-.459-.19l-.676-.676a.65.65 0 01.457-1.116.648.648 0 01.46.198l.677.676a.648.648 0 01-.459 1.108zm26.873 0a.648.648 0 01-.459-1.108l.676-.676a.649.649 0 11.917.918l-.676.676a.648.648 0 01-.458.19zM9.887 38.76a.65.65 0 01-.459-1.107l.676-.676a.65.65 0 11.917.918l-.676.675a.643.643 0 01-.458.19z" fill="#CE1126"/></svg>