<svg width="210" height="60" fill="none" xmlns="http://www.w3.org/2000/svg"><path d="M210 0H0v60h210V0z" fill="#fff"/><path d="M60.103 0H0v60h60.103V0z" fill="#CE1126"/><path d="M14.85 19.2v21.266l5.1 3.281v-.009l10.1-10.085 10.107 10.09v.004l5.094-3.281V19.2l-5.099-2.838v.005L30.047 26.456 19.945 16.37v-.009L14.85 19.2zm18.806 10.85l6.497-6.49v12.985l-6.497-6.495zm-13.711 6.49V23.57l6.501 6.481-6.501 6.49z" fill="#fff"/><path fill-rule="evenodd" clip-rule="evenodd" d="M30.05 33.649l3.125 3.122 3.605-3.603-3.125-3.12-3.605 3.6z" fill="url(#paint0_linear_232_279)"/><path fill-rule="evenodd" clip-rule="evenodd" d="M30.054 26.454l-3.605 3.598-3.126-3.12 3.605-3.599 3.126 3.12z" fill="url(#paint1_linear_232_279)"/><path d="M74.459 49.979h3.342v.508h-2.793v3.902h-.549v-4.41zm3.773 0h2.529c.867 0 1.385.458 1.385 1.197 0 .734-.481 1.282-1.308 1.282h-2.057v1.931h-.549v-4.41zm2.497 1.963c.559 0 .845-.254.845-.721 0-.458-.286-.734-.818-.734h-1.975v1.455h1.948zm3.41.992l-1.957-2.95h.704l1.63 2.42 1.516-2.42h.64l-2.76 4.41h-.632l.859-1.46zm3.159-2.955h3.71v4.41h-.55v-3.902h-2.606v3.902h-.558v-4.41h.004zm4.926 0h3.71v4.41h-.55v-3.902h-2.606v3.902h-.558v-4.41h.004zm6.426 0h.458l2.188 4.41h-.599l-.595-1.187h-2.443l-.58 1.187h-.59l2.16-4.41zm1.203 2.706l-.977-1.95-.967 1.95h1.944zm4.494-2.706h.508l1.703 2.702 1.711-2.702h.5v4.41h-.54v-3.445l-1.671 2.607-1.671-2.607v3.445h-.54v-4.41zm5.244 2.217c0-1.342.967-2.317 2.284-2.317 1.316 0 2.293.975 2.293 2.317 0 1.34-.977 2.306-2.293 2.306-1.317 0-2.284-.965-2.284-2.306zm4.004 0c0-1.048-.73-1.8-1.72-1.8-.981 0-1.721.752-1.721 1.8 0 1.046.735 1.79 1.721 1.79.99 0 1.72-.753 1.72-1.79zm5.376 1.114c-.409.766-1.14 1.192-2.03 1.192-1.316 0-2.284-.965-2.284-2.306 0-1.342.968-2.317 2.284-2.317.817 0 1.517.376 1.934 1.034l-.458.326c-.277-.53-.836-.843-1.476-.843-.981 0-1.72.752-1.72 1.8 0 1.046.735 1.79 1.72 1.79.685 0 1.235-.34 1.589-1.006l.441.33zm.858-3.331h.55v2.194l2.492-2.194h.722l-1.784 1.563 2.056 2.847h-.663l-1.784-2.47-1.035.897v1.573h-.549v-4.41h-.005zm4.081 2.217c0-1.342.968-2.317 2.284-2.317 1.317 0 2.293.975 2.293 2.317 0 1.34-.976 2.306-2.293 2.306-1.316 0-2.284-.965-2.284-2.306zm4.005 0c0-1.048-.727-1.8-1.721-1.8-.985 0-1.721.752-1.721 1.8 0 1.046.736 1.79 1.721 1.79.994 0 1.721-.753 1.721-1.79zm1.412-2.217h2.61c.886 0 1.317.385 1.317 1.097 0 .353-.136.639-.399.811.476.267.712.671.712 1.179 0 .802-.554 1.323-1.489 1.323h-2.751v-4.41zm2.665 1.745c.468 0 .713-.222.713-.616 0-.417-.236-.621-.713-.621h-2.111v1.232h2.111v.005zm.195 2.158c.518 0 .813-.327.813-.826 0-.493-.295-.829-.813-.829h-2.311v1.655h2.311zm6.324-.572c-.408.766-1.135 1.192-2.029 1.192-1.317 0-2.284-.965-2.284-2.306 0-1.342.967-2.317 2.284-2.317.817 0 1.517.376 1.934 1.034l-.459.326c-.281-.53-.835-.843-1.475-.843-.981 0-1.721.752-1.721 1.8 0 1.046.736 1.79 1.721 1.79.69 0 1.235-.34 1.589-1.006l.44.33zm.859-3.331h.55v2.194l2.487-2.194h.722l-1.784 1.563 2.057 2.847h-.663l-1.789-2.47-1.03.897v1.573h-.55v-4.41z" fill="#000"/><path d="M145.558 49.979h.459l2.184 4.41h-.595l-.6-1.187h-2.442l-.581 1.187h-.59l2.165-4.41zm1.204 2.706l-.977-1.95-.962 1.95h1.939zm4.993 1.705v-1.891h-1.489l-1.285 1.89h-.608l1.294-1.93c-.259-.019-.635-.105-.89-.354-.209-.204-.336-.512-.336-.866 0-.385.145-.712.35-.906.19-.182.517-.354 1.076-.354h2.438v4.41h-.55zm0-3.903h-1.916c-.104 0-.394.009-.571.149-.15.114-.255.336-.255.612a.7.7 0 00.227.548c.118.096.314.19.627.19h1.888v-1.5zm4.259-.508h3.632v.508h-3.082v1.232h1.875c.531 0 1.012.091 1.325.43.132.15.304.427.304.885 0 .498-.204.802-.376.965-.354.345-.822.385-1.117.385h-2.565V49.98h.004zm2.643 3.903c.285 0 .49-.091.613-.195.118-.11.231-.295.231-.63 0-.323-.113-.499-.222-.608-.223-.204-.577-.222-.714-.222h-1.997v1.655h2.089zm5.557.508v-3.418l-2.806 3.417h-.358v-4.41h.549v3.422l2.797-3.422h.367v4.41h-.549zm1.725-4.411h2.529c.867 0 1.384.458 1.384 1.197 0 .734-.486 1.282-1.312 1.282h-2.057v1.931h-.548v-4.41h.004zm2.497 1.963c.559 0 .844-.254.844-.721 0-.458-.285-.734-.817-.734h-1.975v1.455h1.948z" fill="#000"/><path d="M172.626 52.794l-.649-.662-1.634 2.257h-.663l1.907-2.633-1.68-1.781h.672l2.047 2.175v-2.189h.559v2.19l2.047-2.176h.672l-1.68 1.78 1.912 2.634h-.663l-1.639-2.257-.649.671v1.586h-.559v-1.595zm5.694-2.815h.459l2.188 4.41h-.599l-.595-1.187h-2.443l-.581 1.187h-.59l2.161-4.41zm1.208 2.706l-.972-1.95-.967 1.95h1.939zM80.779 11.032H76.37v4.328h-1.912V5.72h1.912v3.49h4.408V5.72h1.911v9.64H80.78v-4.328zm10.619 1.926h-4.39l-1.149 2.402h-2.111l4.736-9.64h1.439l4.771 9.64H92.58l-1.18-2.402zm-3.478-1.817h2.57l-1.294-2.58-1.276 2.58zm15.665-5.421v7.855h1.675v3.966h-1.675v-2.18h-7.832V5.72h1.911v7.823h4.009V5.72h1.912zm4.752 9.64h-1.312V5.72h1.912v6.26l4.899-6.26h1.33v9.64h-1.912V9.101l-4.917 6.26zm13.858.236a5.067 5.067 0 01-1.984-.38 4.914 4.914 0 01-1.585-1.048 4.671 4.671 0 01-1.049-1.59 5.346 5.346 0 01-.372-2.017c0-.726.123-1.401.372-2.022a4.672 4.672 0 011.049-1.59 5.006 5.006 0 013.569-1.428c.717 0 1.38.126 1.993.38a4.826 4.826 0 011.584 1.047c.445.444.791.97 1.044 1.591.255.617.387 1.292.387 2.022a5.18 5.18 0 01-.387 2.017 4.749 4.749 0 01-1.044 1.59 4.897 4.897 0 01-1.584 1.047 5.165 5.165 0 01-1.993.381zm0-8.222c-.427 0-.822.082-1.195.236a2.923 2.923 0 00-.962.657 3.025 3.025 0 00-.64 1.002 3.55 3.55 0 00-.227 1.292c0 .47.077.902.227 1.287.15.39.363.725.64 1.01.273.286.595.504.962.653.373.15.768.227 1.195.227.436 0 .839-.082 1.212-.236.368-.159.695-.376.962-.657.273-.281.486-.612.641-1.002.149-.385.227-.816.227-1.287s-.078-.906-.227-1.292a2.936 2.936 0 00-1.603-1.659 3.225 3.225 0 00-1.212-.23zm13.198 3.658h-4.409v4.328h-1.916V5.72h1.916v3.49h4.409V5.72h1.911v9.64h-1.911v-4.328zm10.633 1.926h-4.39l-1.149 2.402h-2.116l4.736-9.64h1.439l4.772 9.64h-2.112l-1.18-2.402zm-3.478-1.817h2.57l-1.294-2.58-1.276 2.58zm12.626-2.656l-2.951 6.875h-2.098l4.336-9.64h1.435l4.372 9.64h-2.093l-3.001-6.875zm10.679.748c.744 0 1.394.063 1.957.19a2.616 2.616 0 011.421.866c.254.303.436.62.54.951.104.336.155.671.155 1.011 0 .594-.096 1.074-.291 1.446-.195.372-.413.662-.659.866a2.908 2.908 0 01-.658.44 3.59 3.59 0 01-1.294.344c-.19.013-.358.018-.49.018h-5.208V5.72h1.912v3.513h2.615zm.64 4.31c.145 0 .313-.01.504-.027.191-.018.368-.095.54-.227a.903.903 0 00.314-.408c.072-.177.108-.367.108-.575 0-.209-.036-.4-.108-.576a1.017 1.017 0 00-.84-.644 4.771 4.771 0 00-.459-.036h-3.31v2.493h3.251zm11.418-2.511h-4.408v4.328h-1.916V5.72h1.916v3.49h4.408V5.72h1.912v9.64h-1.912v-4.328zm8.527-1.799c.744 0 1.398.063 1.952.19a2.614 2.614 0 011.426.866c.267.312.449.634.549.965.1.326.15.648.15.965 0 .558-.091 1.03-.268 1.41-.177.38-.39.689-.631.915a2.475 2.475 0 01-1.212.671 6.168 6.168 0 01-1.285.145h-5.131V5.72h1.912v3.513h2.538zm.74 4.31c.168 0 .345-.014.527-.036.181-.028.345-.1.495-.223a.875.875 0 00.335-.507c.046-.195.064-.354.064-.476a2.14 2.14 0 00-.064-.48.882.882 0 00-.281-.463.995.995 0 00-.527-.267 3.376 3.376 0 00-.545-.045h-3.278v2.492h3.274v.005zm4.953-7.823h1.912v9.64h-1.912V5.72zm5.562 9.64h-1.312V5.72h1.911v6.259l4.899-6.26h1.331v9.641h-1.912V9.1l-4.917 6.26zm5.684-12.659a6.036 6.036 0 01-.063.472 3.426 3.426 0 01-.146.543 2.777 2.777 0 01-.263.54 1.49 1.49 0 01-.418.444 2.007 2.007 0 01-.976.38 7.41 7.41 0 01-.994.073 7.5 7.5 0 01-.994-.072 2.089 2.089 0 01-.972-.381 1.503 1.503 0 01-.418-.444 2.656 2.656 0 01-.263-.54 3.318 3.318 0 01-.145-.543 4.496 4.496 0 01-.059-.472h1.475c.009.426.15.716.418.875a1.1 1.1 0 00.459.154c.168.018.34.027.508.027.136 0 .29-.009.472-.027.182-.018.354-.077.509-.172.218-.145.354-.43.399-.857h1.471zM79.93 20.097c.644 0 1.158.09 1.54.267.38.186.666.372.861.567.196.181.373.44.536.77.164.336.245.77.245 1.32 0 .543-.086.992-.253 1.34-.173.354-.355.635-.55.835a2.11 2.11 0 01-.585.453c-.21.113-.41.19-.605.25-.195.054-.38.09-.563.108a3.79 3.79 0 01-.476.032h-3.72v3.684h-1.9v-9.626h5.47zm-.168 4.083c.132 0 .304-.018.504-.045s.372-.109.517-.227a2.43 2.43 0 00.209-.276c.1-.145.155-.358.155-.64 0-.244-.041-.425-.118-.547a1.884 1.884 0 00-.209-.277.859.859 0 00-.454-.222 3.92 3.92 0 00-.513-.036H76.37v2.27h3.39zm10.429 3.141h-4.386l-1.144 2.398H82.55l4.73-9.622h1.44l4.767 9.622h-2.111l-1.185-2.398zm-3.473-1.817h2.565l-1.294-2.58-1.271 2.58zm16.531 1.781a5.3 5.3 0 01-.781 1.124c-.304.33-.622.598-.949.82a3.97 3.97 0 01-1.235.562 5.688 5.688 0 01-1.416.159c-.668 0-1.312-.1-1.94-.295-.626-.204-1.198-.566-1.72-1.106-.386-.385-.717-.888-.98-1.495-.268-.612-.4-1.306-.4-2.08 0-.667.118-1.324.345-1.982a4.618 4.618 0 011.053-1.704 4.87 4.87 0 011.353-.934c.295-.14.636-.249 1.017-.335a5.836 5.836 0 011.28-.127c.523 0 1 .06 1.435.172a4.43 4.43 0 011.167.481c.304.168.604.39.89.662.291.272.554.58.781.915l-1.617 1.147a4.358 4.358 0 00-.485-.64 3.051 3.051 0 00-.608-.507 3.112 3.112 0 00-.686-.272 3.55 3.55 0 00-.9-.104c-.462 0-.866.068-1.22.2a2.74 2.74 0 00-.963.634c-.232.231-.44.54-.626.925-.187.385-.282.87-.282 1.45a3.293 3.293 0 00.926 2.361c.24.24.536.435.881.571.345.136.75.209 1.208.209.363 0 .69-.05.985-.145a3.3 3.3 0 00.835-.435c.205-.154.409-.35.609-.571a2.8 2.8 0 00.499-.807l1.544 1.147zm7.291 2.434v-3.925h-2.47c-.245 0-.503-.014-.785-.036a5.695 5.695 0 01-.826-.136 3.761 3.761 0 01-.777-.281 2.265 2.265 0 01-.635-.476 2.252 2.252 0 01-.604-1.151 6.537 6.537 0 01-.109-1.115v-2.502h1.907v2.03c0 .209.018.453.063.734.046.286.173.53.391.74.108.094.249.171.417.235.168.063.337.104.509.127.168.022.322.04.463.045.141.005.245.01.322.01h2.125V20.1h1.911v9.623h-1.902v-.005zm4.708-9.622h7.746v1.813h-5.839v1.78h3.546v1.814h-3.546v2.402h6.202v1.813h-8.114v-9.622h.005zm15.133 9.622h-1.907v-7.814h-3.709v-1.813h9.329v1.813h-3.709v7.814h-.004zm11.636-4.324h-4.405v4.324h-1.911v-9.622h1.911v3.485h4.405v-3.485h1.906v9.622h-1.906v-4.324zm8.844-1.799c.74 0 1.394.063 1.948.19a2.626 2.626 0 011.425.866c.264.313.45.634.55.96.095.327.145.649.145.962 0 .557-.086 1.028-.264 1.41a2.81 2.81 0 01-.63.91 2.507 2.507 0 01-1.213.675 6.138 6.138 0 01-1.285.145h-5.121v-9.617h1.912V23.6h2.533v-.004zm.74 4.305c.172 0 .349-.013.531-.04a.923.923 0 00.49-.218.877.877 0 00.336-.508c.041-.194.064-.349.064-.47 0-.146-.018-.305-.064-.481a.889.889 0 00-.281-.463.992.992 0 00-.527-.267 4.007 4.007 0 00-.545-.045h-3.273v2.488h3.269v.005zm4.713-7.804h1.911v9.622h-1.911v-9.622zm5.462 9.622h-1.312v-9.623h1.911v6.246l4.89-6.245h1.33v9.622h-1.911v-6.25l-4.908 6.25zm5.671-12.641c-.014.131-.037.29-.064.471a2.967 2.967 0 01-.146.544 2.766 2.766 0 01-.267.535 1.495 1.495 0 01-.418.444 2.09 2.09 0 01-.972.38c-.372.05-.699.073-.994.073-.291 0-.622-.022-.99-.072a2.042 2.042 0 01-.971-.38 1.562 1.562 0 01-.418-.445 3.06 3.06 0 01-.413-1.079 6.41 6.41 0 01-.059-.471h1.471c.013.426.154.716.418.87.136.082.286.136.454.154.172.018.34.027.508.027.132 0 .291-.009.472-.027.182-.018.35-.077.509-.172.218-.145.354-.43.4-.852h1.48zM83.748 44.073h-7.69v2.18h-1.599V42.26h1.434l3.401-7.823h1.199l3.419 7.823h1.434v3.993h-1.602v-2.18h.004zm-3.854-6.608l-1.925 4.79h3.873l-1.948-4.79zm7.128-3.015h7.745v1.818h-5.839v1.777h3.546v1.817h-3.546v2.398h6.202v1.813h-8.108v-9.622zm16.467 1.818h-4.417v7.805H97.16v-9.622h8.24v9.622h-1.916v-7.805h.005zm8.658 8.041a5.085 5.085 0 01-1.984-.381 4.85 4.85 0 01-1.58-1.047c-.45-.44-.8-.97-1.045-1.586a5.31 5.31 0 01-.372-2.017c0-.725.127-1.396.372-2.017a4.53 4.53 0 011.045-1.587c.449-.44.971-.788 1.58-1.042a5.087 5.087 0 011.984-.38c.713 0 1.38.126 1.988.38.613.254 1.14.603 1.585 1.042.44.44.79.97 1.044 1.587.254.62.381 1.287.381 2.017s-.127 1.4-.381 2.017a4.807 4.807 0 01-1.044 1.586c-.445.44-.972.789-1.585 1.047-.608.25-1.275.38-1.988.38zm0-8.209c-.427 0-.822.082-1.19.236a2.868 2.868 0 00-.963.657 2.9 2.9 0 00-.635.997c-.15.39-.227.816-.227 1.288 0 .471.077.902.227 1.287.149.39.363.725.635 1.01.273.282.591.504.963.653.368.15.768.227 1.19.227.435 0 .84-.077 1.207-.236a2.878 2.878 0 001.598-1.654c.15-.385.227-.816.227-1.287 0-.472-.077-.898-.227-1.288a2.916 2.916 0 00-1.598-1.654 3.098 3.098 0 00-1.207-.236zm7.16 4.94c.204.187.454.372.753.558.295.19.645.363 1.045.508a5.97 5.97 0 001.116.294c.373.06.722.096 1.045.096.281 0 .572-.028.885-.073a2.38 2.38 0 00.79-.258c.291-.159.481-.345.581-.558.096-.213.146-.412.146-.594a.834.834 0 00-.137-.494 1.292 1.292 0 00-.39-.33c-.223-.127-.49-.2-.813-.24a12.17 12.17 0 00-1.298-.055h-1.199v-1.867h1.471c.413 0 .726-.01.936-.037a1.8 1.8 0 00.522-.127 1.59 1.59 0 00.344-.217c.123-.095.182-.254.182-.471a.707.707 0 00-.281-.58 1.024 1.024 0 00-.236-.141 1.77 1.77 0 01-.191-.095 3.137 3.137 0 00-.636-.173 5.375 5.375 0 00-.872-.059 5.73 5.73 0 00-1.911.304 5.673 5.673 0 00-1.526.839l-1.13-1.505a8.328 8.328 0 012.071-1.092c.776-.281 1.661-.417 2.656-.417.195 0 .413.009.653.027.246.018.49.05.749.1.255.045.509.117.772.208.259.09.509.209.74.354.264.18.482.376.64.584.164.204.287.408.373.608.086.199.141.385.168.562.022.176.032.321.032.444 0 .349-.078.689-.236 1.006-.16.322-.423.553-.781.698.204.095.385.213.535.344.15.136.277.268.373.404.172.226.281.453.326.67a3.673 3.673 0 01-.163 2.017 2.602 2.602 0 01-.817 1.07 3.778 3.778 0 01-1.603.78 8.485 8.485 0 01-1.748.181 11.12 11.12 0 01-1.544-.104 8.14 8.14 0 01-1.493-.386 6.871 6.871 0 01-2.02-1.16l1.121-1.622zm11.877 3.033h-1.308v-9.622h1.907v6.245l4.894-6.245h1.326v9.622h-1.911v-6.246l-4.908 6.246zm14.197 0h-1.911v-7.805h-3.709v-1.817h9.326v1.817h-3.71v7.805h.004zm10.661-2.398h-4.386l-1.144 2.398H148.4l4.731-9.622h1.439l4.763 9.622h-2.111l-1.18-2.398zm-3.478-1.817h2.565l-1.289-2.58-1.276 2.58zm13.366-5.408c.64 0 1.153.091 1.535.273.381.18.671.371.862.562.196.18.377.444.54.775.164.326.246.77.246 1.314 0 .548-.082.993-.255 1.346a3.198 3.198 0 01-.549.834 2.14 2.14 0 01-.581.453 3.01 3.01 0 01-.604.245c-.195.05-.381.086-.563.109a4.843 4.843 0 01-.472.027h-3.719v3.685h-1.906v-9.622h5.466zm-.168 4.084a4 4 0 00.5-.045 1.04 1.04 0 00.522-.231c.036-.036.108-.127.213-.277.105-.145.159-.358.159-.639 0-.244-.046-.426-.123-.548a2.586 2.586 0 00-.209-.276.85.85 0 00-.453-.218 3.838 3.838 0 00-.509-.036h-3.487v2.27h3.387zm6.433 5.539h-1.307v-9.622h1.906v6.245l4.895-6.245h1.33v9.622h-1.911v-6.246l-4.913 6.246zm10.461 0h-1.307v-9.622h1.911v6.245l4.89-6.245h1.326v9.622h-1.907v-6.245l-4.913 6.245zm5.789-12.636c-.013.131-.036.29-.063.471a2.962 2.962 0 01-.15.544 2.68 2.68 0 01-.264.535 1.49 1.49 0 01-.418.444c-.276.209-.599.33-.971.38a8.286 8.286 0 01-.994.073c-.286 0-.618-.027-.99-.072a2.071 2.071 0 01-.972-.381 1.512 1.512 0 01-.417-.444 2.914 2.914 0 01-.409-1.079 6.128 6.128 0 01-.063-.471h1.47c.014.421.151.716.418.87.132.086.282.136.454.154.173.018.341.027.509.027.131 0 .295-.009.472-.027a1.2 1.2 0 00.509-.172c.217-.145.349-.43.403-.852h1.476z" fill="#000"/><defs><linearGradient id="paint0_linear_232_279" x1="34.95" y1="34.941" x2="30.079" y2="30.062" gradientUnits="userSpaceOnUse"><stop stop-color="#fff"/><stop offset="1" stop-color="#DB0626"/></linearGradient><linearGradient id="paint1_linear_232_279" x1="25.153" y1="25.16" x2="30.025" y2="30.04" gradientUnits="userSpaceOnUse"><stop stop-color="#fff"/><stop offset="1" stop-color="#DB0626"/></linearGradient></defs></svg>