<svg width="48" height="48" fill="none" xmlns="http://www.w3.org/2000/svg"><circle cx="24" cy="24" r="23.5" fill="#54656F" stroke="#637884"/><path fill-rule="evenodd" clip-rule="evenodd" d="M35 24.067C35 17.955 30.075 13 24 13s-11 4.955-11 11.067C13 29.591 17.023 34.17 22.281 35v-7.734h-2.793v-3.199h2.793V21.63c0-2.774 1.643-4.306 4.155-4.306 1.204 0 2.462.216 2.462.216v2.724h-1.387c-1.366 0-1.792.853-1.792 1.728v2.076h3.05l-.487 3.2h-2.563V35C30.977 34.17 35 29.591 35 24.067z" fill="#fff"/></svg>