<svg width="200" height="50" fill="none" xmlns="http://www.w3.org/2000/svg"><path d="M98.873 13h-5.928v24h5.273V21.182h.328l5.6 9.127h2.799l5.601-9.127h.327V37h5.309V13h-5.818l-6.691 10.873L98.873 13zm30.327 0h-5.346v24h5.346V26.745h2.654L139.236 37h6.946l-9.855-12.8 8.982-11.2h-6.655l-6.836 8.836-2.618.291V13zm40.036 0h-19.2v24h10.909c1.382 0 2.618-.182 3.782-.509A9.967 9.967 0 00167.709 35a8.057 8.057 0 002-2.436 8.209 8.209 0 00.691-3.346c0-1.273-.255-2.4-.691-3.418-.509-.945-1.163-1.745-1.964-2.364a8.264 8.264 0 00-3.018-1.418c-1.164-.327-2.4-.473-3.782-.473h-5.563v-3.709h9.091L169.236 13zm-13.818 19.2v-5.964h5.709c1.236 0 2.182.255 2.836.8.691.51 1.019 1.2 1.019 2.182 0 .91-.328 1.6-1.019 2.182-.654.51-1.673.8-2.982.8h-5.563zM59.855 13.036L47.855 25l-5.964-6 6-6h-12L30 19l18 18 15.346-15.49h9.2l8.472-8.474H59.855z" fill="#BB0032"/><path d="M50.473 36.745l1.709-1.709 11.854-11.854h17.019l-8.51 8.473h-5.018l-5.018 5.09H50.473z" fill="#BB0032"/></svg>