<svg width="39" height="24" fill="none" xmlns="http://www.w3.org/2000/svg"><rect x=".5" y=".5" width="38" height="23" rx="3.5" stroke="#fff"/><path d="M9.134 16V6.662h2.912c1.073 0 1.867.238 2.38.714.523.476.784 1.18.784 2.114 0 .905-.275 1.591-.826 2.058-.541.467-1.335.7-2.38.7h-1.75V16h-1.12zm1.12-4.732h1.834c.57 0 1.031-.14 1.386-.42.355-.28.532-.742.532-1.386 0-.644-.168-1.11-.504-1.4-.336-.29-.812-.434-1.428-.434h-1.82v3.64zM16.749 16V6.662h2.408c.364 0 .742.033 1.134.098a3.8 3.8 0 011.092.322c.336.159.644.364.924.616.28.243.518.537.714.882.206.345.364.737.476 1.176.122.43.182.91.182 1.442 0 .653-.074 1.241-.224 1.764-.15.513-.36.961-.63 1.344-.261.383-.574.7-.938.952a3.935 3.935 0 01-1.946.7 8.21 8.21 0 01-.784.042H16.75zm1.12-.966h1.148c.206 0 .439-.01.7-.028.262-.028.5-.084.714-.168.28-.121.542-.28.784-.476a3 3 0 00.658-.714c.196-.29.346-.63.448-1.022a5.02 5.02 0 00.168-1.372c0-.812-.126-1.465-.378-1.96a2.851 2.851 0 00-1.008-1.162 2.716 2.716 0 00-.966-.378 4.724 4.724 0 00-1.064-.126H17.87v7.406zm7.562.966V6.662h5.292v.966H26.55v3.15h3.08v.966h-3.094V16H25.43z" fill="#fff"/></svg>