<svg width="180" height="71" fill="none" xmlns="http://www.w3.org/2000/svg"><g clip-path="url(#clip0_232_587)" fill-rule="evenodd" clip-rule="evenodd"><path d="M0 70.544h179.742V0H0v70.544z" fill="#FFFFFE"/><path d="M70.621 38.4h4.302v5.807h5.518V38.4h4.3v15.515h-4.3V48.02h-5.518v5.895h-4.302V38.401zm17.466 0h4.257v8.734l6.008-8.733h4.01v15.515h-4.255v-8.733L92.1 53.916h-4.012V38.401zm17.624 0h4.298v6.296l5.344-6.295h5.096l-5.872 6.67 6.072 8.845h-5.165l-3.898-5.762-1.577 1.75v4.012h-4.298V38.401zm27.294 7.758c0-2.238-1.617-4.189-3.991-4.189-2.349 0-3.922 1.906-3.922 4.189 0 2.242 1.618 4.189 3.967 4.189 2.372 0 3.946-1.904 3.946-4.189zm-12.322 0c0-4.454 3.588-8.068 8.376-8.068 4.787 0 8.337 3.57 8.337 8.068 0 4.456-3.592 8.07-8.382 8.07-4.787 0-8.331-3.571-8.331-8.07zm42.464 4.146c1.416 0 2.26-.644 2.26-1.86 0-1.088-.844-1.797-2.239-1.797h-2.26v3.657h2.239zm-6.538-11.905h4.299v4.878h2.351c3.722 0 6.45 1.774 6.45 5.273 0 3.35-2.439 5.366-6.226 5.366h-6.874V38.399zm-15.406.001v6.808c0 1.609-.165 3.935-1.226 4.76-.499.385-1.32.68-1.841.68v3.656h.408c1.485 0 3.152-.597 3.792-1.003 2.595-1.646 2.914-4.778 2.914-8.316v-2.817h3.712v11.748h4.301V38.401h-12.06zM70.621 20.396h-4.656v-3.77h13.611v3.77h-4.653v11.747h-4.302V20.396zm11.215-3.769h12.48v3.656h-8.222v2.35h7.446v3.394h-7.446v2.46h8.331v3.655h-12.59V16.627zm19.67 7.623l-5.098-7.623h4.944l2.749 4.367 2.771-4.367h4.833l-5.099 7.581 5.321 7.935h-4.946l-2.968-4.676-2.993 4.676h-4.832l5.318-7.892zm12.452-7.623h4.299v5.807h5.522v-5.807h4.302v15.515h-4.302v-5.896h-5.522v5.896h-4.299V16.627zm29.029 7.759c0-2.239-1.618-4.191-3.988-4.191-2.351 0-3.925 1.905-3.925 4.191 0 2.24 1.617 4.187 3.967 4.187 2.371 0 3.946-1.902 3.946-4.187zm-12.328 0c0-4.457 3.594-8.07 8.382-8.07s8.335 3.57 8.335 8.07c0 4.454-3.591 8.068-8.377 8.068-4.793 0-8.34-3.571-8.34-8.068z" fill="#1A1919"/><path d="M59.751 50.186l-9.94 9.94-36.78.006-2.998-2.996V20.358l9.946-9.946h36.775l2.997 2.994v36.78z" fill="#D8232A"/><path d="M56.755 10.412l-11.18 11.183v16.322l-9.16-12.588H17.11v3.955h5.689v15.09l-12.76 12.762v2.996l2.993-.005 14.056-14.055V29.284h5.686v15.93h4.24V32.626l9.156 12.588h3.641V23.35l9.941-9.944v-2.994h-2.996z" fill="#FFFFFE"/></g><defs><clipPath id="clip0_232_587"><path fill="#fff" d="M0 0h180v70.568H0z"/></clipPath></defs></svg>