<svg width="200" height="50" fill="none" xmlns="http://www.w3.org/2000/svg"><path d="M20 10h29.24v14.92H20V10z" fill="#E7002A"/><path d="M68 24.56a2.159 2.159 0 002.28-2.28 2.39 2.39 0 00-2.44-2.6h-6.28v4.84l6.44.04zm-.12-7.24a4.78 4.78 0 015.16 5c0 3-2 4.72-5.16 4.72H61.6v4.88h-2.72v-14.6h9zm15.16 2c-3.36 0-5.68 2.28-5.68 5.24 0 2.96 2.2 5.24 5.68 5.24 3.48 0 5.64-2.24 5.64-5.24s-2.16-5.24-5.64-5.24zm0 12.92c-4.64 0-8.48-3.08-8.48-7.68s3.84-7.72 8.48-7.72c4.64 0 8.48 3.16 8.48 7.76s-3.76 7.68-8.44 7.68l-.04-.04zm19.68.04c-4.88 0-8.56-3.08-8.56-7.72s3.72-7.68 8.56-7.68a10.879 10.879 0 016.8 2.16l-1.44 2.16a8.259 8.259 0 00-5.24-1.8c-3.56 0-5.76 2.24-5.76 5.16s2.24 5.16 5.8 5.16a8.6 8.6 0 005.36-1.76l1.44 2.04a11.001 11.001 0 01-7 2.2l.04.08zM134 26h5.6l-2.76-6-2.84 6zm-1.12 2.36l-1.68 3.52h-2.92l7.08-14.56h2.84l7.12 14.56h-2.92l-1.68-3.52h-7.84zm26.72 3.56v-6.28h-9.52v6.24h-2.68V17.32h2.68v5.92h9.52v-5.92h2.72v14.56l-2.72.04zm6.72 0v-14.6H169v6.76l7.32-6.76h3.32l-7.52 7 7.88 7.56h-3.64L169 24.8v7.08l-2.68.04zm-44.48-2.48h-6.48V25h6.48c1.68 0 2.64.88 2.64 2.2 0 1.32-.76 2.2-2.64 2.2v.04zm-.16-6.84h-6.32v-3.04h10.4v-2.28h-13.12v14.56h9c3.16 0 5.36-1.72 5.36-4.6s-2.2-4.6-5.36-4.6M20 24.64h29.24v14.64H20V24.64z" fill="#000"/><path d="M25.08 23.72h19v1.8h-19v-1.8z" fill="#fff"/></svg>