<svg width="200" height="50" fill="none" xmlns="http://www.w3.org/2000/svg"><path d="M90.5 19.5l3.8-2.8H81.7v16.6h12.6v-2.8h-9v-4.2h7.6v-2.8h-7.6v-4h5.2zm-15.7 0l3.8-2.8H64.2v16.6h7.5c4.2 0 6.6-1.9 6.6-5.2 0-3.2-2.2-4.9-6.2-4.9h-4.4v-3.7h7.1zm-3.2 6.4c2.3 0 3.3.8 3.3 2.3 0 1.5-1.1 2.3-3.3 2.3h-3.8v-4.6h3.8zm32.8-9.2h-6.8v16.6h3.6v-4.7h3.3c4.4 0 7.1-2.3 7.1-6s-2.8-5.9-7.2-5.9zm0 9.1h-3.2v-6.4h3.2c2.3 0 3.6 1.1 3.6 3.2-.1 2.1-1.3 3.2-3.6 3.2zm-46.3 3.9c-1 .5-2 .8-3.1.8-3.2 0-5.6-2.3-5.6-5.5s2.3-5.5 5.6-5.5c1.2 0 2.3.4 3.3 1l2.6-1.9-.2-.2c-1.5-1.3-3.5-2-5.8-2-2.5 0-4.7.8-6.4 2.4-1.6 1.6-2.6 3.8-2.5 6.1 0 2.3.9 4.5 2.5 6.2 1.7 1.6 4 2.5 6.3 2.4 2.6 0 4.8-.9 6.4-2.5l-2.3-1.7-.8.4zM166 23.5h-7.7v-6.8h-3.6v16.6h3.6v-6.8h7.7v6.8h3.6V16.7H166v6.8zm-24.3-6.8l-7.2 16.6h3.6l1.4-3.3h7.6l1.4 3.3h3.8l-7-16.6h-3.6zm-1 10.5l2.8-6.7 2.6 6.7h-5.4zm41.9-2.5l6.5-8H185l-5.4 7.1h-2v-7.1H174v16.6h3.6v-6.7h2.3l5.5 6.7h4.6l-7.4-8.6zM127 23.2h-4.4v-3.7h9.4v-2.8h-13v16.6h7.5c4.2 0 6.6-1.9 6.6-5.2.1-3.2-2.1-4.9-6.1-4.9zm-.6 7.4h-3.8V26h3.8c2.3 0 3.3.8 3.3 2.3.1 1.5-1.1 2.3-3.3 2.3zM34.48 16.381c.65.85 1.2 1.775 1.638 2.754l-12.449 9.3-5.202-3.305v-3.976l5.203 3.305 10.81-8.078z" fill="#21A038"/><path d="M13.157 24.85c0-.179.005-.356.013-.533l-3.153-.156a13.974 13.974 0 001.021 5.99 13.823 13.823 0 002.965 4.49l2.236-2.265a10.624 10.624 0 01-2.282-3.452 10.737 10.737 0 01-.8-4.075z" fill="url(#paint0_linear_258_3874)"/><path d="M23.667 14.2c.176 0 .35.006.525.014l.157-3.196a13.471 13.471 0 00-5.914 1.035 13.62 13.62 0 00-4.432 3.004l2.236 2.267a10.463 10.463 0 013.406-2.314 10.35 10.35 0 014.022-.81z" fill="url(#paint1_linear_258_3874)"/><path d="M23.667 35.5c-.176 0-.351 0-.526-.013l-.158 3.195a13.464 13.464 0 005.912-1.034 13.61 13.61 0 004.43-3.005l-2.232-2.266a10.468 10.468 0 01-3.405 2.313 10.334 10.334 0 01-4.021.81z" fill="url(#paint2_linear_258_3874)"/><path d="M29.591 16.058l2.658-1.986A13.493 13.493 0 0023.663 11v3.199a10.36 10.36 0 015.928 1.859z" fill="url(#paint3_linear_258_3874)"/><path d="M37.333 24.85c.002-.832-.07-1.663-.215-2.482l-2.941 2.197v.285c0 1.488-.307 2.96-.904 4.32a10.618 10.618 0 01-2.558 3.574l2.122 2.376a13.807 13.807 0 003.325-4.65 13.972 13.972 0 001.171-5.62z" fill="#21A038"/><path d="M23.667 35.501c-1.468 0-2.92-.311-4.263-.916a10.496 10.496 0 01-3.527-2.592l-2.344 2.149a13.638 13.638 0 004.59 3.37 13.474 13.474 0 005.544 1.188v-3.199z" fill="url(#paint4_linear_258_3874)"/><path d="M16.62 16.956l-2.121-2.377a13.806 13.806 0 00-3.327 4.65A13.971 13.971 0 0010 24.85h3.157c0-1.487.307-2.96.904-4.319a10.62 10.62 0 012.558-3.574z" fill="url(#paint5_linear_258_3874)"/><defs><linearGradient id="paint0_linear_258_3874" x1="14.642" y1="34.242" x2="11.109" y2="24.166" gradientUnits="userSpaceOnUse"><stop offset=".14" stop-color="#F1E813"/><stop offset=".3" stop-color="#E6E418"/><stop offset=".58" stop-color="#C9DA26"/><stop offset=".89" stop-color="#A2CC39"/></linearGradient><linearGradient id="paint1_linear_258_3874" x1="14.904" y1="15.623" x2="23.819" y2="12.271" gradientUnits="userSpaceOnUse"><stop offset=".06" stop-color="#0FA7DF"/><stop offset=".54" stop-color="#0098F8"/><stop offset=".92" stop-color="#0290EA"/></linearGradient><linearGradient id="paint2_linear_258_3874" x1="22.775" y1="36.769" x2="32.835" y2="34.526" gradientUnits="userSpaceOnUse"><stop offset=".12" stop-color="#A2CC39"/><stop offset=".28" stop-color="#86C239"/><stop offset=".87" stop-color="#219F38"/></linearGradient><linearGradient id="paint3_linear_258_3874" x1="23.006" y1="12.071" x2="31.616" y2="14.693" gradientUnits="userSpaceOnUse"><stop offset=".06" stop-color="#0290EA"/><stop offset=".79" stop-color="#0C89CA"/></linearGradient><linearGradient id="paint4_linear_258_3874" x1="14.325" y1="33.752" x2="23.705" y2="37.212" gradientUnits="userSpaceOnUse"><stop offset=".13" stop-color="#F1E813"/><stop offset=".3" stop-color="#EAE616"/><stop offset=".53" stop-color="#D8DF1F"/><stop offset=".8" stop-color="#BAD52D"/><stop offset=".98" stop-color="#A2CC39"/></linearGradient><linearGradient id="paint5_linear_258_3874" x1="11.176" y1="25.237" x2="15.017" y2="15.377" gradientUnits="userSpaceOnUse"><stop offset=".07" stop-color="#A2CC39"/><stop offset=".26" stop-color="#81C45E"/><stop offset=".92" stop-color="#0FA7DF"/></linearGradient></defs></svg>