<svg width="48" height="48" fill="none" xmlns="http://www.w3.org/2000/svg"><circle cx="24" cy="24" r="23.5" fill="#54656F" stroke="#637884"/><path d="M33.466 18.775a7.565 7.565 0 01-2.175.596 3.803 3.803 0 001.665-2.094 7.635 7.635 0 01-2.407.92 3.788 3.788 0 00-6.455 3.454 10.755 10.755 0 01-7.807-3.959 3.76 3.76 0 00-.513 1.904c0 1.315.67 2.474 1.685 3.153a3.79 3.79 0 01-1.716-.476v.048a3.792 3.792 0 003.038 3.714 3.836 3.836 0 01-.998.133 3.66 3.66 0 01-.713-.07 3.79 3.79 0 003.538 2.63 7.6 7.6 0 01-4.705 1.62 8.04 8.04 0 01-.903-.052A10.707 10.707 0 0020.807 32c6.968 0 10.777-5.772 10.777-10.778l-.012-.49a7.564 7.564 0 001.894-1.957z" fill="#fff"/></svg>