<svg width="48" height="48" fill="none" xmlns="http://www.w3.org/2000/svg"><path d="M44.108 25.946H3.892a.648.648 0 01-.649-.649V24C3.243 11.481 12.555 1.297 24 1.297c11.445 0 20.757 10.184 20.757 22.703v1.297a.649.649 0 01-.649.649zM4.54 24.649h38.92V24c0-11.805-8.73-21.405-19.46-21.405S4.54 12.195 4.54 24v.649z" fill="#CE1126"/><path d="M32.871 25.946a.648.648 0 01-.649-.649V24c0-11.603-3.762-21.405-8.222-21.405-4.46 0-8.222 9.802-8.222 21.405v1.297a.649.649 0 01-1.298 0V24c0-12.73 4.182-22.703 9.52-22.703 5.338 0 9.52 9.973 9.52 22.703v1.297a.648.648 0 01-.649.649z" fill="#CE1126"/><path d="M21.12 46.703a3.616 3.616 0 01-3.606-3.607v-.285a.648.648 0 111.297 0v.285a2.319 2.319 0 002.31 2.31 2.312 2.312 0 002.308-2.31V25.297a.649.649 0 111.298 0v17.8a3.61 3.61 0 01-3.607 3.606z" fill="#CE1126"/></svg>