<svg width="68" height="24" fill="none" xmlns="http://www.w3.org/2000/svg"><rect x=".5" y=".5" width="67" height="23" rx="3.5" stroke="#7D878C"/><path d="M9.134 16V6.662h2.66c.933 0 1.638.215 2.114.644.476.43.714 1.008.714 1.736 0 .597-.173 1.06-.518 1.386-.336.317-.77.523-1.302.616.261.028.527.089.798.182.28.093.527.233.742.42.224.177.406.41.546.7.14.28.21.63.21 1.05 0 .401-.07.765-.21 1.092a2.382 2.382 0 01-1.414 1.33 3.2 3.2 0 01-1.092.182H9.134zm1.12-5.376h1.442c.56 0 .99-.15 1.288-.448.308-.299.462-.69.462-1.176 0-.915-.537-1.372-1.61-1.372h-1.582v2.996zm0 4.41h2.072c.476 0 .859-.135 1.148-.406.29-.28.434-.7.434-1.26 0-1.185-.723-1.778-2.17-1.778h-1.484v3.444zm6.973-2.436c0 .84.192 1.498.575 1.974.382.476.938.714 1.666.714.42 0 .774-.103 1.064-.308.289-.205.522-.457.7-.756l.713.476c-.242.42-.56.77-.951 1.05-.383.27-.901.406-1.555.406-.503 0-.956-.075-1.358-.224a3.013 3.013 0 01-1.035-.672 3.17 3.17 0 01-.659-1.106c-.149-.439-.224-.947-.224-1.526 0-.532.07-1.008.21-1.428.15-.43.35-.793.602-1.092.262-.308.574-.541.938-.7a2.968 2.968 0 011.232-.252c.495 0 .925.084 1.288.252.374.168.682.406.925.714.242.299.424.663.546 1.092.12.42.181.882.181 1.386h-4.858zm3.64-.854a1.878 1.878 0 00-.168-.756 1.608 1.608 0 00-.392-.546 1.411 1.411 0 00-.545-.322 1.79 1.79 0 00-.617-.112c-.447 0-.835.135-1.162.406-.317.261-.536.705-.657 1.33h3.541zm5.528-3.626c-.392.019-.71.107-.952.266a1.65 1.65 0 00-.574.588c-.14.233-.247.495-.322.784-.065.28-.121.56-.168.84.243-.327.537-.593.882-.798.355-.205.812-.308 1.372-.308.457 0 .863.084 1.218.252.364.168.667.401.91.7.252.299.439.653.56 1.064.13.401.196.84.196 1.316 0 .42-.065.83-.196 1.232-.13.392-.327.747-.588 1.064a3.02 3.02 0 01-.994.756c-.392.187-.85.28-1.372.28-.541 0-1.008-.098-1.4-.294a2.668 2.668 0 01-.952-.812 3.884 3.884 0 01-.546-1.246 7.03 7.03 0 01-.168-1.582c0-1.69.247-2.945.742-3.766.504-.821 1.307-1.246 2.408-1.274l.546-.014c.29-.01.513-.056.672-.14.159-.093.252-.275.28-.546l.84.154c-.037.56-.2.938-.49 1.134-.28.196-.69.303-1.232.322l-.672.028zm-1.484 6.356c.168.233.373.425.616.574.252.14.546.21.882.21.336 0 .63-.07.882-.21.261-.14.476-.327.644-.56.168-.233.294-.495.378-.784.084-.299.126-.597.126-.896 0-.299-.042-.593-.126-.882a2.354 2.354 0 00-.378-.784 1.869 1.869 0 00-.644-.56 1.787 1.787 0 00-.882-.21c-.336 0-.63.07-.882.21-.252.13-.462.313-.63.546-.168.224-.294.48-.378.77a3.57 3.57 0 00-.112.896c0 .299.042.597.126.896.084.29.21.55.378.784zM31.17 16V9.322h1.05V13.9l3.345-3.738v-.84h1.05V16h-1.05v-4.578L32.22 15.16V16h-1.05zm7.464 0V9.322h1.092v2.758h3.318V9.322h1.092V16h-1.092v-3.038h-3.318V16h-1.092zm11.188 0l-.056-.574a2.54 2.54 0 01-.813.546 2.62 2.62 0 01-.993.182c-.29 0-.575-.047-.855-.14a2.254 2.254 0 01-.727-.378 2.01 2.01 0 01-.7-1.568c0-.476.125-.868.377-1.176a2.75 2.75 0 01.98-.728 4.71 4.71 0 011.303-.392 8.937 8.937 0 011.386-.112v-.084c0-.56-.122-.961-.364-1.204-.234-.243-.575-.364-1.022-.364-.308 0-.593.07-.855.21-.252.13-.466.308-.644.532l-.756-.532c.271-.364.588-.63.952-.798.374-.177.84-.266 1.4-.266.747 0 1.326.191 1.736.574.42.383.63 1.022.63 1.918V16h-.98zm-.099-3.486c-.307.01-.634.033-.98.07a3.949 3.949 0 00-.965.224c-.29.103-.533.257-.729.462-.186.205-.28.476-.28.812 0 .215.042.397.127.546.084.15.186.275.308.378.13.093.27.163.42.21.158.037.312.056.462.056.326 0 .625-.065.895-.196.28-.14.528-.303.742-.49v-2.072zm2.965 6.132V9.322h.98l.084.49c.289-.233.592-.401.91-.504a3.388 3.388 0 011.022-.154c.494 0 .914.093 1.26.28.345.187.625.439.84.756.224.317.382.686.476 1.106.102.41.154.84.154 1.288 0 .541-.084 1.031-.252 1.47a3.416 3.416 0 01-.7 1.134c-.29.308-.64.546-1.05.714a3.48 3.48 0 01-1.33.252c-.523 0-.962-.075-1.316-.224v2.716h-1.078zm1.078-3.654c.102.075.252.145.448.21.196.056.415.084.658.084.354 0 .681-.06.98-.182a2.265 2.265 0 001.302-1.344 3.33 3.33 0 00.182-1.134c0-.308-.033-.616-.098-.924a2.585 2.585 0 00-.322-.84 1.692 1.692 0 00-.602-.602c-.243-.159-.546-.238-.91-.238a2.03 2.03 0 00-.868.196c-.28.13-.537.303-.77.518v4.256z" fill="#7D878C"/></svg>