<svg width="1280" height="684" fill="none" xmlns="http://www.w3.org/2000/svg"><path d="M.5.5h1279v683H.5V.5z" fill="#fff" stroke="#ECECEC"/><path fill="#fff" d="M610 347h60v40h-60z"/><path d="M670 287h-60v60h60v-60z" fill="#CE1126"/><path d="M624.851 306.199v21.267l5.098 3.281v-.009l10.102-10.085 10.107 10.089v.005l5.094-3.281v-21.267l-5.099-2.837v.005l-10.106 10.089-10.102-10.085v-.009l-5.094 2.837zm18.805 10.851l6.497-6.49v12.985l-6.497-6.495zm-13.711 6.49v-12.971l6.501 6.481-6.501 6.49z" fill="#fff"/><path fill-rule="evenodd" clip-rule="evenodd" d="M640.05 320.649l3.125 3.122 3.605-3.603-3.125-3.12-3.605 3.601z" fill="url(#paint0_linear_234_2487)"/><path fill-rule="evenodd" clip-rule="evenodd" d="M640.054 313.454l-3.605 3.598-3.126-3.12 3.605-3.599 3.126 3.121z" fill="url(#paint1_linear_234_2487)"/><path d="M629.093 373v-5.712h-5.784V373h-2.544v-12.72h2.544v4.608h5.784v-4.608h2.544V373h-2.544zm8.348-7.32h4.464c.608 0 1.056-.12 1.344-.36.32-.32.48-.72.48-1.2 0-.432-.144-.792-.432-1.08-.256-.224-.68-.336-1.272-.336h-4.584v2.976zm-2.545-5.4h7.225c1.376 0 2.432.368 3.168 1.104.688.656 1.032 1.576 1.032 2.76 0 1.152-.352 2.112-1.056 2.88-.704.736-1.68 1.104-2.928 1.104h-4.896V373h-2.545v-12.72zm20.165 10.344l-2.568-6.36-2.544 6.36h5.112zm2.52 5.256V373h-10.152v2.88h-2.112v-5.256h1.896l4.488-10.368h1.584l4.512 10.368h1.896v5.256h-2.112zM581.255 76l-4.536-6.288-2.184 1.848V76h-2.52V63.28h2.52v5.256l6.12-5.256h3.336l-5.4 4.752L584.327 76h-3.072zm9.877-10.536c-1.136 0-2.088.392-2.856 1.176-.752.784-1.128 1.792-1.128 3.024s.376 2.24 1.128 3.024c.768.784 1.72 1.176 2.856 1.176 1.152 0 2.104-.392 2.856-1.176.768-.784 1.152-1.792 1.152-3.024s-.384-2.24-1.152-3.024c-.752-.784-1.704-1.176-2.856-1.176zm4.704 8.976c-1.248 1.248-2.816 1.872-4.704 1.872s-3.456-.624-4.704-1.872c-1.248-1.264-1.872-2.856-1.872-4.776s.624-3.504 1.872-4.752c1.248-1.264 2.816-1.896 4.704-1.896s3.456.632 4.704 1.896c1.264 1.248 1.896 2.832 1.896 4.752s-.632 3.512-1.896 4.776zm6.753-5.76h4.464c.608 0 1.056-.12 1.344-.36.32-.32.48-.72.48-1.2 0-.432-.144-.792-.432-1.08-.256-.224-.68-.336-1.272-.336h-4.584v2.976zm-2.544-5.4h7.224c1.376 0 2.432.368 3.168 1.104.688.656 1.032 1.576 1.032 2.76 0 1.152-.352 2.112-1.056 2.88-.704.736-1.68 1.104-2.928 1.104h-4.896V76h-2.544V63.28zM621.899 76V65.704h-5.808V76h-2.544V63.28h10.872V76h-2.52zm11.491-10.536c-1.136 0-2.088.392-2.856 1.176-.752.784-1.128 1.792-1.128 3.024s.376 2.24 1.128 3.024c.768.784 1.72 1.176 2.856 1.176 1.152 0 2.104-.392 2.856-1.176.768-.784 1.152-1.792 1.152-3.024s-.384-2.24-1.152-3.024c-.752-.784-1.704-1.176-2.856-1.176zm4.704 8.976c-1.248 1.248-2.816 1.872-4.704 1.872s-3.456-.624-4.704-1.872c-1.248-1.264-1.872-2.856-1.872-4.776s.624-3.504 1.872-4.752c1.248-1.264 2.816-1.896 4.704-1.896s3.456.632 4.704 1.896c1.264 1.248 1.896 2.832 1.896 4.752s-.632 3.512-1.896 4.776zm6.753-5.76h4.464c.608 0 1.056-.12 1.344-.36.32-.32.48-.72.48-1.2 0-.432-.144-.792-.432-1.08-.256-.224-.68-.336-1.272-.336h-4.584v2.976zm-2.544-5.4h7.224c1.376 0 2.432.368 3.168 1.104.688.656 1.032 1.576 1.032 2.76 0 1.152-.352 2.112-1.056 2.88-.704.736-1.68 1.104-2.928 1.104h-4.896V76h-2.544V63.28zm17.483 3.744l-1.68 3.408h3.384l-1.704-3.408zM664.25 76l-1.56-3.144h-5.784L655.394 76h-2.784l6.24-12.72h1.896L667.034 76h-2.784zm11.612-12.72h2.52v10.344h2.208v5.256h-2.208V76h-10.32V63.28h2.544v10.296h5.256V63.28zm14.893 4.464L684.275 76h-1.728V63.28h2.52v8.256l6.456-8.256h1.752V76h-2.52v-8.256zm10.438 3.168L698.025 76h-2.976l3.36-5.304c-.88-.192-1.592-.56-2.136-1.104-.608-.608-.912-1.44-.912-2.496 0-1.12.328-2.008.984-2.664.768-.768 1.96-1.152 3.576-1.152h7.056V76h-2.52v-5.088h-3.264zm3.264-5.256h-4.776c-.56 0-.976.104-1.248.312-.336.208-.504.568-.504 1.08 0 .48.152.848.456 1.104.304.256.784.384 1.44.384h4.632v-2.88z" fill="#000"/><rect x="384" y="102" width="512" height="116" rx="12" fill="#C32E40"/><rect opacity=".4" x="437" y="169" width="32" height="24" rx="4" fill="#fff"/><path d="M448.752 185v-7.966l-2.1 1.344-.546-.77 2.8-1.848h.98V185h-1.134zm11.383-1.694a4.756 4.756 0 01-.448.672 3.251 3.251 0 01-.63.602 3.264 3.264 0 01-.84.434 3.231 3.231 0 01-1.078.168 4.383 4.383 0 01-1.54-.266 3.364 3.364 0 01-1.232-.854c-.346-.392-.621-.891-.826-1.498-.196-.607-.294-1.339-.294-2.198 0-.868.107-1.61.322-2.226.214-.625.494-1.134.84-1.526a3.229 3.229 0 011.19-.854c.448-.187.9-.28 1.358-.28.709 0 1.339.173 1.89.518.55.345.961.812 1.232 1.4l-.91.546a2.63 2.63 0 00-.336-.504 2.07 2.07 0 00-.476-.462 2.234 2.234 0 00-.602-.336 1.743 1.743 0 00-.7-.14c-.822 0-1.466.336-1.932 1.008-.458.672-.686 1.629-.686 2.87 0 .607.07 1.148.21 1.624.14.467.331.863.574 1.19.242.317.527.56.854.728.336.159.695.238 1.078.238.27 0 .508-.037.714-.112a2.25 2.25 0 00.574-.294c.177-.131.331-.28.462-.448.14-.177.266-.359.378-.546l.854.546z" fill="#fff"/><rect opacity=".4" x="477" y="169" width="39" height="24" rx="4" fill="#fff"/><path d="M486.302 182.998c.271.392.625.686 1.064.882.439.196.887.294 1.344.294.243 0 .471-.028.686-.084.224-.065.415-.159.574-.28.168-.131.299-.299.392-.504.103-.205.154-.448.154-.728 0-.261-.061-.49-.182-.686a1.94 1.94 0 00-.49-.546 3.627 3.627 0 00-.7-.42 15.654 15.654 0 00-.812-.378c-.317-.14-.63-.28-.938-.42a4.278 4.278 0 01-.84-.532 2.743 2.743 0 01-.602-.714c-.149-.271-.224-.602-.224-.994 0-.401.079-.751.238-1.05.168-.308.387-.56.658-.756.28-.205.593-.355.938-.448a3.945 3.945 0 011.106-.154 4.24 4.24 0 011.694.35c.541.233.98.602 1.316 1.106l-.854.672a2.726 2.726 0 00-.938-.812 2.424 2.424 0 00-1.232-.322c-.551 0-.98.126-1.288.378-.299.243-.448.569-.448.98 0 .233.051.434.154.602.112.159.261.308.448.448.196.131.429.257.7.378l.91.406c.317.14.63.289.938.448.308.159.583.345.826.56.243.215.439.467.588.756.149.289.224.635.224 1.036 0 .476-.084.887-.252 1.232-.159.345-.378.63-.658.854-.28.224-.607.387-.98.49a4.304 4.304 0 01-1.176.154c-.317 0-.635-.037-.952-.112a4.332 4.332 0 01-.896-.294 4.193 4.193 0 01-.784-.476 3.017 3.017 0 01-.588-.658l.882-.658zm5.917 2.002l3.598-9.338h.686l3.668 9.338h-1.218l-1.106-2.884h-3.388L493.395 185h-1.176zm2.604-3.878h2.66l-1.358-3.57-1.302 3.57zM501.31 185v-9.338h2.912c1.073 0 1.866.238 2.38.714.522.476.784 1.181.784 2.114 0 .905-.276 1.591-.826 2.058-.542.467-1.335.7-2.38.7h-1.75V185h-1.12zm1.12-4.732h1.834c.569 0 1.031-.14 1.386-.42.354-.28.532-.742.532-1.386 0-.644-.168-1.111-.504-1.4-.336-.289-.812-.434-1.428-.434h-1.82v3.64z" fill="#fff"/><rect opacity=".4" x="524" y="169" width="41" height="24" rx="4" fill="#fff"/><path d="M532 185l2.898-4.788-2.646-4.55h1.358l2.002 3.668 2.044-3.668h1.288l-2.66 4.466 2.94 4.872h-1.4l-2.24-4.004-2.296 4.004H532zm8.353 0v-9.338h1.316l2.716 7.21 2.8-7.21h1.302V185h-1.078v-7.126l-2.898 7.28h-.224l-2.842-7.266V185h-1.092zm10.404 0v-9.338h1.12v8.372h4.326V185h-5.446z" fill="#fff"/><rect opacity=".4" x="716" y="169" width="36" height="24" rx="4" fill="#fff"/><path d="M725.134 185v-9.338h1.12V185h-1.12zm3.559-2.002c.27.392.625.686 1.064.882a3.26 3.26 0 001.344.294c.242 0 .471-.028.686-.084.224-.065.415-.159.574-.28.168-.131.298-.299.392-.504.102-.205.154-.448.154-.728 0-.261-.061-.49-.182-.686a1.956 1.956 0 00-.49-.546 3.658 3.658 0 00-.7-.42 16.05 16.05 0 00-.812-.378c-.318-.14-.63-.28-.938-.42a4.278 4.278 0 01-.84-.532 2.724 2.724 0 01-.602-.714c-.15-.271-.224-.602-.224-.994 0-.401.079-.751.238-1.05.168-.308.387-.56.658-.756.28-.205.592-.355.938-.448a3.94 3.94 0 011.106-.154c.588 0 1.152.117 1.694.35.541.233.98.602 1.316 1.106l-.854.672a2.735 2.735 0 00-.938-.812 2.426 2.426 0 00-1.232-.322c-.551 0-.98.126-1.288.378-.299.243-.448.569-.448.98 0 .233.051.434.154.602.112.159.261.308.448.448.196.131.429.257.7.378l.91.406c.317.14.63.289.938.448.308.159.583.345.826.56.242.215.438.467.588.756.149.289.224.635.224 1.036 0 .476-.084.887-.252 1.232-.159.345-.378.63-.658.854-.28.224-.607.387-.98.49a4.304 4.304 0 01-1.176.154 4.12 4.12 0 01-.952-.112 4.332 4.332 0 01-.896-.294 4.161 4.161 0 01-.784-.476 2.966 2.966 0 01-.588-.658l.882-.658zm8.772 1.764a3.864 3.864 0 01-1.232-1.092 5.047 5.047 0 01-.714-1.554 7.266 7.266 0 01-.224-1.792c0-.607.075-1.199.224-1.778a5.047 5.047 0 01.714-1.554 3.661 3.661 0 011.232-1.092c.495-.28 1.088-.42 1.778-.42.682 0 1.27.14 1.764.42.495.271.901.635 1.218 1.092.327.457.565.975.714 1.554a6.833 6.833 0 010 3.57 4.623 4.623 0 01-.714 1.554 3.702 3.702 0 01-1.218 1.092c-.494.28-1.082.42-1.764.42-.69 0-1.283-.14-1.778-.42zm-.322-1.778c.234.364.523.658.868.882.346.215.756.322 1.232.322s.887-.107 1.232-.322a2.75 2.75 0 00.854-.882c.224-.364.392-.775.504-1.232.112-.467.168-.943.168-1.428 0-.476-.056-.943-.168-1.4a3.976 3.976 0 00-.49-1.246 2.574 2.574 0 00-.868-.868c-.345-.224-.756-.336-1.232-.336s-.891.112-1.246.336a2.766 2.766 0 00-.868.868 4.25 4.25 0 00-.504 1.246 6.41 6.41 0 00-.154 1.4c0 .485.056.961.168 1.428.112.457.28.868.504 1.232z" fill="#fff"/><rect opacity=".4" x="760" y="169" width="39" height="24" rx="4" fill="#fff"/><path d="M769.134 185v-9.338h2.912c1.073 0 1.867.238 2.38.714.523.476.784 1.181.784 2.114 0 .905-.275 1.591-.826 2.058-.541.467-1.335.7-2.38.7h-1.75V185h-1.12zm1.12-4.732h1.834c.569 0 1.031-.14 1.386-.42.355-.28.532-.742.532-1.386 0-.644-.168-1.111-.504-1.4-.336-.289-.812-.434-1.428-.434h-1.82v3.64zm6.495 4.732v-9.338h2.408c.364 0 .742.033 1.134.098a3.79 3.79 0 011.092.322c.336.159.644.364.924.616.28.243.518.537.714.882.206.345.364.737.476 1.176.122.429.182.91.182 1.442 0 .653-.074 1.241-.224 1.764a4.46 4.46 0 01-.63 1.344c-.261.383-.574.7-.938.952a3.944 3.944 0 01-1.946.7c-.289.028-.55.042-.784.042h-2.408zm1.12-.966h1.148c.206 0 .439-.009.7-.028.262-.028.5-.084.714-.168.28-.121.542-.28.784-.476a3 3 0 00.658-.714c.196-.289.346-.63.448-1.022.112-.392.168-.849.168-1.372 0-.812-.126-1.465-.378-1.96a2.84 2.84 0 00-1.008-1.162 2.72 2.72 0 00-.966-.378 4.72 4.72 0 00-1.064-.126h-1.204v7.406zm7.562.966v-9.338h5.292v.966h-4.172v3.15h3.08v.966h-3.094V185h-1.106z" fill="#fff"/><rect opacity=".4" x="807" y="169" width="35" height="24" rx="4" fill="#fff"/><path d="M815.532 185v-1.036l5.264-7.336h-5.026v-.966h6.048v1.204l-5.124 7.168h5.334V185h-6.496zm8.094 0v-9.338h1.12V185h-1.12zm3.391 0v-9.338h2.912c1.073 0 1.866.238 2.38.714.522.476.784 1.181.784 2.114 0 .905-.276 1.591-.826 2.058-.542.467-1.335.7-2.38.7h-1.75V185h-1.12zm1.12-4.732h1.834c.569 0 1.031-.14 1.386-.42.354-.28.532-.742.532-1.386 0-.644-.168-1.111-.504-1.4-.336-.289-.812-.434-1.428-.434h-1.82v3.64z" fill="#fff"/><rect opacity=".4" x="573" y="169" width="135" height="24" rx="4" fill="#fff"/><path d="M588.574 183.306a4.671 4.671 0 01-.448.672 3.195 3.195 0 01-1.47 1.036 3.227 3.227 0 01-1.078.168 4.383 4.383 0 01-1.54-.266 3.373 3.373 0 01-1.232-.854c-.345-.392-.621-.891-.826-1.498-.196-.607-.294-1.339-.294-2.198 0-.868.107-1.61.322-2.226.215-.625.495-1.134.84-1.526a3.237 3.237 0 011.19-.854c.448-.187.901-.28 1.358-.28.709 0 1.339.173 1.89.518.551.345.961.812 1.232 1.4l-.91.546a2.63 2.63 0 00-.336-.504 2.05 2.05 0 00-.476-.462 2.22 2.22 0 00-.602-.336 1.743 1.743 0 00-.7-.14c-.821 0-1.465.336-1.932 1.008-.457.672-.686 1.629-.686 2.87 0 .607.07 1.148.21 1.624.14.467.331.863.574 1.19.243.317.527.56.854.728.336.159.695.238 1.078.238.271 0 .509-.037.714-.112.215-.075.406-.173.574-.294.177-.131.331-.28.462-.448.14-.177.266-.359.378-.546l.854.546zm1.405 1.694v-6.678h2.856c.7 0 1.227.145 1.582.434.354.28.532.686.532 1.218 0 .42-.103.77-.308 1.05a1.27 1.27 0 01-.756.532c.177.028.35.075.518.14.168.056.312.145.434.266.121.121.219.275.294.462.074.177.112.401.112.672 0 .308-.052.583-.154.826a1.628 1.628 0 01-.434.588c-.187.159-.411.28-.672.364a2.645 2.645 0 01-.84.126h-3.164zm1.064-.882h1.974c.149 0 .294-.014.434-.042a1.08 1.08 0 00.364-.168.901.901 0 00.266-.322 1.19 1.19 0 00.098-.504.943.943 0 00-.336-.742c-.215-.196-.532-.294-.952-.294h-1.848v2.072zm0-2.954h1.722c.392 0 .676-.098.854-.294.186-.205.28-.457.28-.756-.019-.607-.364-.91-1.036-.91h-1.82v1.96zm7.158 3.696a3.079 3.079 0 01-.966-.798 3.519 3.519 0 01-.588-1.134 4.435 4.435 0 01-.196-1.302c0-.439.06-.863.182-1.274.13-.42.326-.793.588-1.12.261-.327.583-.588.966-.784.392-.196.849-.294 1.372-.294.513 0 .966.103 1.358.308.392.196.714.457.966.784.261.327.457.7.588 1.12a4.331 4.331 0 010 2.576c-.131.42-.327.793-.588 1.12a2.89 2.89 0 01-.966.798c-.392.196-.845.294-1.358.294-.514 0-.966-.098-1.358-.294zm-.182-1.4c.177.243.392.443.644.602.261.149.56.224.896.224.345 0 .644-.075.896-.224.261-.159.476-.359.644-.602.177-.252.308-.537.392-.854a3.756 3.756 0 000-1.932 2.499 2.499 0 00-.392-.84 1.893 1.893 0 00-.644-.602 1.73 1.73 0 00-.896-.224c-.346 0-.649.075-.91.224-.252.149-.462.35-.63.602a2.662 2.662 0 00-.378.84 3.6 3.6 0 00-.126.952c0 .336.042.663.126.98.084.317.21.602.378.854zm9.06-6.342c-.392.019-.71.107-.952.266a1.641 1.641 0 00-.574.588c-.14.233-.248.495-.322.784-.066.28-.122.56-.169.84.243-.327.537-.593.883-.798.354-.205.812-.308 1.372-.308.457 0 .863.084 1.218.252.364.168.667.401.91.7.252.299.438.653.56 1.064.13.401.196.84.196 1.316 0 .42-.066.831-.196 1.232a3.31 3.31 0 01-.588 1.064 3.03 3.03 0 01-.994.756c-.392.187-.85.28-1.372.28-.542 0-1.008-.098-1.4-.294a2.668 2.668 0 01-.952-.812 3.874 3.874 0 01-.546-1.246 7.03 7.03 0 01-.168-1.582c0-1.689.247-2.945.742-3.766.504-.821 1.306-1.246 2.408-1.274l.546-.014c.289-.009.513-.056.672-.14.158-.093.252-.275.28-.546l.84.154c-.038.56-.201.938-.49 1.134-.28.196-.691.303-1.232.322l-.672.028zm-1.484 6.356c.168.233.373.425.616.574.252.14.546.21.882.21.336 0 .63-.07.882-.21.261-.14.476-.327.644-.56.168-.233.294-.495.378-.784.084-.299.126-.597.126-.896 0-.299-.042-.593-.126-.882a2.352 2.352 0 00-.378-.784 1.875 1.875 0 00-.644-.56 1.787 1.787 0 00-.882-.21c-.336 0-.63.07-.882.21a1.779 1.779 0 00-.63.546 2.376 2.376 0 00-.378.77 3.554 3.554 0 00-.112.896c0 .299.042.597.126.896.084.289.21.551.378.784zm7.645 1.386a3.079 3.079 0 01-.966-.798 3.519 3.519 0 01-.588-1.134 4.435 4.435 0 01-.196-1.302c0-.439.06-.863.182-1.274.13-.42.326-.793.588-1.12.261-.327.583-.588.966-.784.392-.196.849-.294 1.372-.294.513 0 .966.103 1.358.308.392.196.714.457.966.784.261.327.457.7.588 1.12a4.331 4.331 0 010 2.576c-.131.42-.327.793-.588 1.12a2.89 2.89 0 01-.966.798c-.392.196-.845.294-1.358.294-.514 0-.966-.098-1.358-.294zm-.182-1.4c.177.243.392.443.644.602.261.149.56.224.896.224.345 0 .644-.075.896-.224.261-.159.476-.359.644-.602.177-.252.308-.537.392-.854a3.756 3.756 0 000-1.932 2.499 2.499 0 00-.392-.84 1.893 1.893 0 00-.644-.602 1.73 1.73 0 00-.896-.224c-.346 0-.649.075-.91.224-.252.149-.462.35-.63.602a2.662 2.662 0 00-.378.84 3.6 3.6 0 00-.126.952c0 .336.042.663.126.98.084.317.21.602.378.854zm5.462 3.052v-2.394h.434c.28-.168.508-.411.686-.728.186-.317.326-.663.42-1.036.102-.383.172-.775.21-1.176.037-.401.056-.775.056-1.12v-1.736h4.606v5.796h.742v2.394h-1.064V185h-5.026v1.512h-1.064zm5.32-2.394v-4.914h-2.464v1.218c0 .336-.019.681-.056 1.036a7.225 7.225 0 01-.182 1.008 5.052 5.052 0 01-.336.91 2.638 2.638 0 01-.49.742h3.528zm3.285.882v-6.678h1.092v2.758h3.318v-2.758h1.092V185h-1.092v-3.038h-3.318V185h-1.092zm7.52 0v-6.678h1.106v2.044h1.554c.476 0 .882.061 1.218.182.336.112.611.271.826.476.214.196.373.434.476.714a2.6 2.6 0 01.154.896c0 .327-.052.635-.154.924a2.04 2.04 0 01-.476.742 2.36 2.36 0 01-.826.518c-.336.121-.742.182-1.218.182h-2.66zm1.106-.882h1.498c.532 0 .924-.126 1.176-.378.252-.252.378-.621.378-1.106 0-.485-.126-.835-.378-1.05-.243-.224-.63-.336-1.162-.336h-1.512v2.87zm5.306.882v-6.678h1.078V185h-1.078zm3.09 0v-6.678h1.05v4.578l3.346-3.738v-.84h1.05V185h-1.05v-4.578l-3.346 3.738v.84h-1.05zm1.484-9.814c.037.215.107.397.21.546.102.149.219.271.35.364.13.084.266.149.406.196.14.037.27.056.392.056.121 0 .252-.019.392-.056.14-.047.275-.112.406-.196.14-.093.261-.215.364-.364a1.38 1.38 0 00.21-.546h.896c-.01.364-.089.677-.238.938-.15.261-.336.476-.56.644-.215.159-.458.28-.728.364a2.697 2.697 0 01-.742.112c-.243 0-.495-.037-.756-.112a2.642 2.642 0 01-.728-.364 2.17 2.17 0 01-.546-.644 2.07 2.07 0 01-.224-.938h.896zm11.891 12.46V185a4.805 4.805 0 01-1.4-.252 3.564 3.564 0 01-1.106-.658 3.118 3.118 0 01-.728-1.05c-.177-.411-.266-.882-.266-1.414 0-.532.089-.999.266-1.4.178-.401.42-.737.728-1.008.308-.28.677-.495 1.106-.644.43-.149.896-.233 1.4-.252v-2.66h.994v2.66c.504.019.971.103 1.4.252a3 3 0 011.106.63c.318.271.565.611.742 1.022.178.401.266.868.266 1.4 0 .551-.088 1.031-.266 1.442a2.87 2.87 0 01-.742 1.036c-.317.28-.69.495-1.12.644a4.65 4.65 0 01-1.386.252v2.646h-.994zm.994-3.514c.327-.019.64-.084.938-.196a2.39 2.39 0 00.784-.476c.224-.205.402-.457.532-.756.131-.308.196-.667.196-1.078 0-.401-.065-.751-.196-1.05a2.061 2.061 0 00-.532-.742 2.215 2.215 0 00-.784-.462 3.344 3.344 0 00-.938-.182v4.942zm-.994-4.942a3.213 3.213 0 00-.952.196 2.246 2.246 0 00-.77.462 2.17 2.17 0 00-.518.742c-.13.289-.196.635-.196 1.036 0 .411.066.77.196 1.078.131.299.308.551.532.756.224.205.481.364.77.476.299.112.612.177.938.196v-4.942zm7.52 5.67a3.101 3.101 0 01-.966-.798 3.559 3.559 0 01-.588-1.134 4.468 4.468 0 01-.014-2.576c.131-.42.327-.793.588-1.12.262-.327.584-.588.966-.784.392-.196.85-.294 1.372-.294.514 0 .966.103 1.358.308.392.196.714.457.966.784.262.327.458.7.588 1.12a4.3 4.3 0 01.196 1.288 4.3 4.3 0 01-.196 1.288c-.13.42-.326.793-.588 1.12a2.89 2.89 0 01-.966.798c-.392.196-.844.294-1.358.294-.513 0-.966-.098-1.358-.294zm-.182-1.4c.178.243.392.443.644.602.262.149.56.224.896.224.346 0 .644-.075.896-.224.262-.159.476-.359.644-.602.178-.252.308-.537.392-.854a3.756 3.756 0 000-1.932 2.48 2.48 0 00-.392-.84 1.884 1.884 0 00-.644-.602 1.727 1.727 0 00-.896-.224c-.345 0-.648.075-.91.224-.252.149-.462.35-.63.602a2.662 2.662 0 00-.378.84 3.6 3.6 0 00-.126.952c0 .336.042.663.126.98.084.317.21.602.378.854zm6.26 4.186v-9.324h.98l.084.49c.29-.233.593-.401.91-.504a3.383 3.383 0 011.022-.154c.495 0 .915.093 1.26.28.346.187.626.439.84.756.224.317.383.686.476 1.106.103.411.154.84.154 1.288 0 .541-.084 1.031-.252 1.47a3.404 3.404 0 01-.7 1.134 2.949 2.949 0 01-1.05.714c-.41.168-.854.252-1.33.252-.522 0-.961-.075-1.316-.224v2.716h-1.078zm1.078-3.654c.103.075.252.145.448.21.196.056.416.084.658.084.355 0 .682-.061.98-.182.308-.121.57-.294.784-.518.224-.224.397-.499.518-.826.122-.336.182-.714.182-1.134 0-.308-.032-.616-.098-.924a2.566 2.566 0 00-.322-.84 1.686 1.686 0 00-.602-.602c-.242-.159-.546-.238-.91-.238-.298 0-.588.065-.868.196s-.536.303-.77.518v4.256zm6.306 1.008v-6.678h1.26l2.1 4.886 2.072-4.886h1.246V185h-1.092v-4.872L681.948 185h-.252l-2.128-4.872V185h-1.064zm12.363 0l-.056-.574a2.547 2.547 0 01-.812.546c-.298.121-.63.182-.994.182-.289 0-.574-.047-.854-.14a2.264 2.264 0 01-.728-.378 2.105 2.105 0 01-.504-.658 2.018 2.018 0 01-.196-.91c0-.476.126-.868.378-1.176.262-.308.588-.551.98-.728a4.71 4.71 0 011.302-.392 8.9 8.9 0 011.386-.112v-.084c0-.56-.121-.961-.364-1.204-.233-.243-.574-.364-1.022-.364-.308 0-.592.07-.854.21a1.98 1.98 0 00-.644.532l-.756-.532c.271-.364.588-.63.952-.798.374-.177.84-.266 1.4-.266.747 0 1.326.191 1.736.574.42.383.63 1.022.63 1.918V185h-.98zm-.098-3.486a12.75 12.75 0 00-.98.07 3.942 3.942 0 00-.966.224 1.847 1.847 0 00-.728.462c-.186.205-.28.476-.28.812 0 .215.042.397.126.546.084.149.187.275.308.378.131.093.271.163.42.21.159.037.313.056.462.056.327 0 .626-.065.896-.196.28-.14.528-.303.742-.49v-2.072zM694.98 185v-5.796h-2.142v-.882h5.362v.882h-2.128V185h-1.092zm-125.036-47.296V148h-2.52v-10.296h-4.896v-2.424h12.312v2.424h-4.896zm9.473 2.976h4.464c.608 0 1.056-.12 1.344-.36.32-.32.48-.72.48-1.2 0-.432-.144-.792-.432-1.08-.256-.224-.68-.336-1.272-.336h-4.584v2.976zm-2.544-5.4h7.224c1.376 0 2.432.368 3.168 1.104.688.656 1.032 1.576 1.032 2.76 0 1.152-.352 2.112-1.056 2.88-.704.736-1.68 1.104-2.928 1.104h-4.896V148h-2.544v-12.72zm17.483 3.744l-1.68 3.408h3.384l-1.704-3.408zM598.82 148l-1.56-3.144h-5.784L589.964 148h-2.784l6.24-12.72h1.896l6.288 12.72h-2.784zm12.141 0v-5.712h-5.784V148h-2.544v-12.72h2.544v4.608h5.784v-4.608h2.544V148h-2.544zm14.083-8.256l-6.48 8.256h-1.728v-12.72h2.52v8.256l6.456-8.256h1.752V148h-2.52v-8.256zm4.678 6.384l1.464-2.136a7.213 7.213 0 002.376 1.392 8.196 8.196 0 002.856.504c.944 0 1.68-.144 2.208-.432.64-.336.96-.84.96-1.512 0-.448-.232-.808-.696-1.08-.48-.256-1.408-.384-2.784-.384h-1.584v-2.472h1.944c.976 0 1.616-.072 1.92-.216.464-.192.696-.496.696-.912a.953.953 0 00-.096-.432c-.048-.128-.152-.24-.312-.336-.144-.112-.232-.168-.264-.168a2.002 2.002 0 00-.264-.144c-.528-.208-1.192-.312-1.992-.312-.912 0-1.752.136-2.52.408a7.791 7.791 0 00-2.016 1.104l-1.488-1.992a11.129 11.129 0 012.736-1.44c1.056-.368 2.224-.552 3.504-.552 1.584 0 2.864.304 3.84.912 1.072.752 1.608 1.72 1.608 2.904 0 1.152-.448 1.904-1.344 2.256.496.24.896.568 1.2.984.352.464.528 1.048.528 1.752 0 1.392-.464 2.464-1.392 3.216-1.024.848-2.496 1.272-4.416 1.272-1.456 0-2.792-.216-4.008-.648a9.405 9.405 0 01-2.664-1.536zm23.353-6.384l-6.48 8.256h-1.728v-12.72h2.52v8.256l6.456-8.256h1.752V148h-2.52v-8.256zm12.142-2.04V148h-2.52v-10.296h-4.896v-2.424h12.312v2.424h-4.896zM692.067 148h-10.824l-.048-.456c-.064-.384-.096-.968-.096-1.752 0-1.392.376-2.496 1.128-3.312.688-.752 1.856-1.376 3.504-1.872l1.056-.336c.56-.176 1.08-.368 1.56-.576a.555.555 0 01.12-.072.553.553 0 00.144-.072l.144-.072a.928.928 0 00.168-.12.954.954 0 01.12-.144.954.954 0 00.12-.144.938.938 0 00.072-.192c.016-.08.024-.16.024-.24 0-.4-.24-.704-.72-.912-.384-.176-.896-.264-1.536-.264-.928 0-1.776.176-2.544.528-.672.304-1.384.768-2.136 1.392l-1.512-1.968a11.788 11.788 0 012.448-1.608c1.072-.528 2.248-.792 3.528-.792 1.552 0 2.76.296 3.624.888.96.672 1.44 1.616 1.44 2.832 0 .864-.312 1.608-.936 2.232-.272.24-.656.496-1.152.768-.496.256-.912.432-1.248.528l-1.392.456c-.176.064-.424.152-.744.264a14.756 14.756 0 00-1.152.408 2.464 2.464 0 00-.48.192l-.336.168a1.355 1.355 0 00-.288.216c-.384.336-.576.744-.576 1.224 0 .032.016.16.048.384h8.472V148zm5.944.312c-.384 0-.72-.144-1.008-.432-.272-.288-.408-.648-.408-1.08 0-.432.136-.792.408-1.08a1.331 1.331 0 011.008-.432c.416 0 .752.144 1.008.432.256.288.384.648.384 1.08 0 .432-.136.792-.408 1.08a1.257 1.257 0 01-.984.432zm16.746-1.848c-1.296 1.232-2.96 1.848-4.992 1.848s-3.696-.616-4.992-1.848c-1.296-1.248-1.944-2.848-1.944-4.8 0-1.936.648-3.528 1.944-4.776 1.296-1.248 2.96-1.872 4.992-1.872s3.696.624 4.992 1.872c1.312 1.232 1.968 2.824 1.968 4.776s-.656 3.552-1.968 4.8zm-1.824-7.8c-.784-.784-1.84-1.176-3.168-1.176s-2.392.392-3.192 1.176c-.784.784-1.176 1.792-1.176 3.024 0 1.216.4 2.216 1.2 3 .816.784 1.872 1.176 3.168 1.176 1.312 0 2.368-.392 3.168-1.176.8-.784 1.2-1.784 1.2-3 0-1.232-.4-2.24-1.2-3.024z" fill="#fff"/><rect x="540" y="502" width="200" height="100" rx="12" fill="#ECECEC"/><path d="M616.356 625.576h5.016c.672 0 1.168-.136 1.488-.408.352-.32.528-.744.528-1.272s-.176-.944-.528-1.248c-.288-.24-.752-.36-1.392-.36h-5.112v3.288zm-2.52-10.296h10.848v2.424h-8.328v2.208h3.648c.848 0 1.496.016 1.944.048.464.032.976.144 1.536.336.56.176 1.032.448 1.416.816.72.704 1.08 1.64 1.08 2.808 0 1.2-.4 2.184-1.2 2.952-.784.752-1.872 1.128-3.264 1.128h-7.68v-12.72zm19.684 3.744l-1.68 3.408h3.384l-1.704-3.408zm4.464 8.976l-1.56-3.144h-5.784L629.128 628h-2.784l6.24-12.72h1.896l6.288 12.72h-2.784zm12.141 0v-5.712h-5.784V628h-2.544v-12.72h2.544v4.608h5.784v-4.608h2.544V628h-2.544zm15.115 0l-4.536-6.288-2.184 1.848V628H656v-12.72h2.52v5.256l6.12-5.256h3.336l-5.4 4.752 5.736 7.968h-3.072zm-5.132-55.135h-40.216a.649.649 0 01-.649-.649v-4.378a1.464 1.464 0 011.46-1.46h38.594c.387.001.758.155 1.032.428.273.274.427.645.428 1.032v4.378a.653.653 0 01-.649.649zm-39.568-1.297h38.919v-3.73a.165.165 0 00-.047-.115.165.165 0 00-.115-.047h-38.594a.164.164 0 00-.163.162v3.73z" fill="#000"/><path d="M632.216 567.676h-8.433a.649.649 0 01-.648-.649v-3.243a1.297 1.297 0 011.297-1.298h7.135c.344 0 .674.137.918.38a1.3 1.3 0 01.379.918v3.243a.652.652 0 01-.189.459.653.653 0 01-.459.19zm-7.784-1.298h7.135v-2.594h-7.135v2.594zm7.135-15.892h-7.135a1.296 1.296 0 01-1.297-1.297v-3.243a.649.649 0 01.648-.649h8.433c.172 0 .337.069.459.19a.652.652 0 01.189.459v3.243a1.3 1.3 0 01-.379.918 1.3 1.3 0 01-.918.379zm-7.135-3.891v2.594h7.135v-2.594h-7.135z" fill="#000"/><path d="M660.756 546.595h-41.513a.653.653 0 01-.606-.42.653.653 0 01.178-.716l20.757-18.162a.65.65 0 01.855 0l20.757 18.162a.653.653 0 01-.06 1.02.653.653 0 01-.368.116zm-39.787-1.298h38.061L640 528.646l-19.031 16.651zm35.247 22.379h-8.433a.649.649 0 01-.648-.649v-3.243a1.297 1.297 0 011.297-1.298h7.135c.344 0 .674.137.918.38a1.3 1.3 0 01.379.918v3.243a.652.652 0 01-.189.459.653.653 0 01-.459.19zm-7.784-1.298h7.135v-2.594h-7.135v2.594z" fill="#000"/><path d="M655.567 550.486h-7.135a1.296 1.296 0 01-1.297-1.297v-3.243a.649.649 0 01.648-.649h8.433c.172 0 .337.069.459.19a.652.652 0 01.189.459v3.243a1.3 1.3 0 01-.379.918 1.3 1.3 0 01-.918.379zm-7.135-3.891v2.594h7.135v-2.594h-7.135z" fill="#000"/><path d="M654.486 563.784h-4.972a.653.653 0 01-.649-.649v-13.297a.653.653 0 01.649-.649h4.972a.653.653 0 01.649.649v13.297a.649.649 0 01-.649.649zm-4.323-1.298h3.675v-12h-3.675v12zm-6.082 5.19h-8.432a.653.653 0 01-.649-.649v-3.243a1.301 1.301 0 011.297-1.298h7.135a1.301 1.301 0 011.298 1.298v3.243a.653.653 0 01-.649.649zm-7.784-1.298h7.135v-2.594h-7.135v2.594zm7.135-15.892h-7.135a1.296 1.296 0 01-1.297-1.297v-3.243a.649.649 0 01.649-.649h8.432a.653.653 0 01.649.649v3.243c0 .344-.137.674-.38.918a1.3 1.3 0 01-.918.379zm-7.135-3.891v2.594h7.135v-2.594h-7.135z" fill="#000"/><path d="M642.352 563.784h-4.973a.653.653 0 01-.649-.649v-13.297a.653.653 0 01.649-.649h4.973a.649.649 0 01.648.649v13.297a.649.649 0 01-.648.649zm-4.324-1.298h3.675v-12h-3.675v12zm-7.542 1.298h-4.972a.653.653 0 01-.649-.649v-13.297a.653.653 0 01.649-.649h4.972a.653.653 0 01.649.649v13.297a.649.649 0 01-.649.649zm-4.323-1.298h3.675v-12h-3.675v12z" fill="#000"/><rect x="590" y="468" width="100" height="24" rx="4" fill="#F6F7F8"/><path d="M602.41 484.154v-1.316c-1.241-.047-2.189-.373-2.842-.98-.644-.616-.966-1.461-.966-2.534 0-1.073.331-1.909.994-2.506.663-.607 1.601-.933 2.814-.98v-1.358h1.12v1.358c1.251.047 2.198.373 2.842.98.644.597.966 1.433.966 2.506 0 1.055-.322 1.895-.966 2.52-.644.616-1.591.947-2.842.994v1.316h-1.12zm1.12-2.254c.812-.009 1.461-.224 1.946-.644.495-.42.742-1.064.742-1.932 0-.42-.07-.789-.21-1.106a2.136 2.136 0 00-.56-.798 2.337 2.337 0 00-.84-.49 3.307 3.307 0 00-1.078-.168v5.138zm-1.12-5.138c-.821.019-1.475.243-1.96.672-.476.42-.714 1.05-.714 1.89 0 .859.247 1.503.742 1.932.495.42 1.139.635 1.932.644v-5.138zm7.923 7.098a3.101 3.101 0 01-.966-.798 3.559 3.559 0 01-.588-1.134 4.468 4.468 0 01-.014-2.576c.131-.42.327-.793.588-1.12.262-.327.584-.588.966-.784.392-.196.85-.294 1.372-.294.514 0 .966.103 1.358.308.392.196.714.457.966.784.262.327.458.7.588 1.12a4.3 4.3 0 01.196 1.288 4.3 4.3 0 01-.196 1.288c-.13.42-.326.793-.588 1.12a2.89 2.89 0 01-.966.798c-.392.196-.844.294-1.358.294-.513 0-.966-.098-1.358-.294zm-.182-1.4c.178.243.392.443.644.602.262.149.56.224.896.224.346 0 .644-.075.896-.224.262-.159.476-.359.644-.602.178-.252.308-.537.392-.854a3.756 3.756 0 000-1.932 2.48 2.48 0 00-.392-.84 1.884 1.884 0 00-.644-.602 1.727 1.727 0 00-.896-.224c-.345 0-.648.075-.91.224-.252.149-.462.35-.63.602a2.662 2.662 0 00-.378.84 3.6 3.6 0 00-.126.952c0 .336.042.663.126.98.084.317.21.602.378.854zm6.26 4.186v-9.324h.98l.084.49c.29-.233.593-.401.91-.504a3.383 3.383 0 011.022-.154c.495 0 .915.093 1.26.28.346.187.626.439.84.756.224.317.383.686.476 1.106.103.411.154.84.154 1.288 0 .541-.084 1.031-.252 1.47a3.404 3.404 0 01-.7 1.134 2.949 2.949 0 01-1.05.714c-.41.168-.854.252-1.33.252-.522 0-.961-.075-1.316-.224v2.716h-1.078zm1.078-3.654c.103.075.252.145.448.21.196.056.416.084.658.084.355 0 .682-.061.98-.182.308-.121.57-.294.784-.518.224-.224.397-.499.518-.826.122-.336.182-.714.182-1.134 0-.308-.032-.616-.098-.924a2.566 2.566 0 00-.322-.84 1.686 1.686 0 00-.602-.602c-.242-.159-.546-.238-.91-.238-.298 0-.588.065-.868.196s-.536.303-.77.518v4.256zm6.306 1.008v-6.678h1.26l2.1 4.886 2.072-4.886h1.246V484h-1.092v-4.872L627.239 484h-.252l-2.128-4.872V484h-1.064zm12.363 0l-.056-.574a2.547 2.547 0 01-.812.546c-.298.121-.63.182-.994.182-.289 0-.574-.047-.854-.14a2.264 2.264 0 01-.728-.378 2.105 2.105 0 01-.504-.658 2.018 2.018 0 01-.196-.91c0-.476.126-.868.378-1.176.262-.308.588-.551.98-.728a4.71 4.71 0 011.302-.392 8.9 8.9 0 011.386-.112v-.084c0-.56-.121-.961-.364-1.204-.233-.243-.574-.364-1.022-.364-.308 0-.592.07-.854.21a1.98 1.98 0 00-.644.532l-.756-.532c.271-.364.588-.63.952-.798.374-.177.84-.266 1.4-.266.747 0 1.326.191 1.736.574.42.383.63 1.022.63 1.918V484h-.98zm-.098-3.486a12.75 12.75 0 00-.98.07 3.942 3.942 0 00-.966.224 1.847 1.847 0 00-.728.462c-.186.205-.28.476-.28.812 0 .215.042.397.126.546.084.149.187.275.308.378.131.093.271.163.42.21.159.037.313.056.462.056.327 0 .626-.065.896-.196.28-.14.528-.303.742-.49v-2.072zm4.211 3.486v-5.796h-2.142v-.882h5.362v.882h-2.128V484h-1.092zm9.852-7.882c-.392.019-.709.107-.952.266a1.65 1.65 0 00-.574.588c-.14.233-.247.495-.322.784-.065.28-.121.56-.168.84.243-.327.537-.593.882-.798.355-.205.812-.308 1.372-.308.458 0 .864.084 1.218.252.364.168.668.401.91.7.252.299.439.653.56 1.064.131.401.196.84.196 1.316 0 .42-.065.831-.196 1.232-.13.392-.326.747-.588 1.064a3.01 3.01 0 01-.994.756c-.392.187-.849.28-1.372.28-.541 0-1.008-.098-1.4-.294a2.676 2.676 0 01-.952-.812 3.918 3.918 0 01-.546-1.246 7.03 7.03 0 01-.168-1.582c0-1.689.248-2.945.742-3.766.504-.821 1.307-1.246 2.408-1.274l.546-.014c.29-.009.514-.056.672-.14.159-.093.252-.275.28-.546l.84.154c-.037.56-.2.938-.49 1.134-.28.196-.69.303-1.232.322l-.672.028zm-1.484 6.356c.168.233.374.425.616.574.252.14.546.21.882.21.336 0 .63-.07.882-.21.262-.14.476-.327.644-.56.168-.233.294-.495.378-.784.084-.299.126-.597.126-.896 0-.299-.042-.593-.126-.882a2.352 2.352 0 00-.378-.784 1.866 1.866 0 00-.644-.56 1.787 1.787 0 00-.882-.21c-.336 0-.63.07-.882.21a1.779 1.779 0 00-.63.546 2.376 2.376 0 00-.378.77 3.6 3.6 0 00-.112.896c0 .299.042.597.126.896.084.289.21.551.378.784zm9.928 1.526l-.056-.574a2.558 2.558 0 01-.812.546c-.299.121-.63.182-.994.182a2.69 2.69 0 01-.854-.14 2.243 2.243 0 01-.728-.378 2.005 2.005 0 01-.7-1.568c0-.476.126-.868.378-1.176.261-.308.588-.551.98-.728a4.71 4.71 0 011.302-.392 8.9 8.9 0 011.386-.112v-.084c0-.56-.122-.961-.364-1.204-.234-.243-.574-.364-1.022-.364-.308 0-.593.07-.854.21a1.97 1.97 0 00-.644.532l-.756-.532c.27-.364.588-.63.952-.798.373-.177.84-.266 1.4-.266.746 0 1.325.191 1.736.574.42.383.63 1.022.63 1.918V484h-.98zm-.098-3.486c-.308.009-.635.033-.98.07a3.92 3.92 0 00-.966.224 1.84 1.84 0 00-.728.462c-.187.205-.28.476-.28.812 0 .215.042.397.126.546.084.149.186.275.308.378.13.093.27.163.42.21.158.037.312.056.462.056.326 0 .625-.065.896-.196.28-.14.527-.303.742-.49v-2.072zm3.006 3.486v-6.678h1.092v2.758h3.318v-2.758h1.092V484h-1.092v-3.038h-3.318V484h-1.092zm7.519 0v-6.678h1.078v2.744h.742a.626.626 0 00.28-.056.645.645 0 00.238-.196c.075-.103.154-.243.238-.42.094-.177.206-.406.336-.686.131-.289.257-.523.378-.7.122-.187.248-.331.378-.434.14-.103.29-.168.448-.196a2.42 2.42 0 01.546-.056h.658v.882h-.406c-.252 0-.466.061-.644.182-.168.112-.336.355-.504.728-.186.392-.331.691-.434.896a1.52 1.52 0 01-.308.448L674.51 484h-1.288l-2.086-3.052h-1.064V484h-1.078zm10.258 0l-.056-.574a2.547 2.547 0 01-.812.546c-.298.121-.63.182-.994.182-.289 0-.574-.047-.854-.14a2.264 2.264 0 01-.728-.378 2.105 2.105 0 01-.504-.658 2.018 2.018 0 01-.196-.91c0-.476.126-.868.378-1.176.262-.308.588-.551.98-.728a4.71 4.71 0 011.302-.392 8.9 8.9 0 011.386-.112v-.084c0-.56-.121-.961-.364-1.204-.233-.243-.574-.364-1.022-.364-.308 0-.592.07-.854.21a1.98 1.98 0 00-.644.532l-.756-.532c.271-.364.588-.63.952-.798.374-.177.84-.266 1.4-.266.747 0 1.326.191 1.736.574.42.383.63 1.022.63 1.918V484h-.98zm-.098-3.486a12.75 12.75 0 00-.98.07 3.942 3.942 0 00-.966.224 1.847 1.847 0 00-.728.462c-.186.205-.28.476-.28.812 0 .215.042.397.126.546.084.149.187.275.308.378.131.093.271.163.42.21.159.037.313.056.462.056.327 0 .626-.065.896-.196.28-.14.528-.303.742-.49v-2.072z" fill="#7D878C"/><rect x="820" y="502" width="300" height="100" rx="12" fill="#ECECEC"/><path d="M946.356 625.576h5.016c.672 0 1.168-.136 1.488-.408.352-.32.528-.744.528-1.272s-.176-.944-.528-1.248c-.288-.24-.752-.36-1.392-.36h-5.112v3.288zm-2.52-10.296h10.848v2.424h-8.328v2.208h3.648c.848 0 1.496.016 1.944.048.464.032.976.144 1.536.336.56.176 1.032.448 1.416.816.72.704 1.08 1.64 1.08 2.808 0 1.2-.4 2.184-1.2 2.952-.784.752-1.872 1.128-3.264 1.128h-7.68v-12.72zm19.684 3.744l-1.68 3.408h3.384l-1.704-3.408zm4.464 8.976l-1.56-3.144h-5.784L959.128 628h-2.784l6.24-12.72h1.896l6.288 12.72h-2.784zm12.141 0v-5.712h-5.784V628h-2.544v-12.72h2.544v4.608h5.784v-4.608h2.544V628h-2.544zm15.115 0l-4.536-6.288-2.184 1.848V628H986v-12.72h2.52v5.256l6.12-5.256h3.336l-5.4 4.752 5.736 7.968h-3.072zm-5.132-55.135h-40.216a.649.649 0 01-.649-.649v-4.378a1.464 1.464 0 011.46-1.46h38.594c.387.001.758.155 1.032.428.273.274.427.645.428 1.032v4.378a.653.653 0 01-.649.649zm-39.568-1.297h38.919v-3.73a.165.165 0 00-.047-.115.165.165 0 00-.115-.047h-38.594a.164.164 0 00-.163.162v3.73z" fill="#000"/><path d="M986.216 567.676h-8.433a.649.649 0 01-.648-.649v-3.243a1.297 1.297 0 011.297-1.298h7.135c.344 0 .674.137.918.38a1.3 1.3 0 01.379.918v3.243a.652.652 0 01-.189.459.653.653 0 01-.459.19zm-7.784-1.298h7.135v-2.594h-7.135v2.594zm7.135-15.892h-7.135a1.296 1.296 0 01-1.297-1.297v-3.243a.649.649 0 01.648-.649h8.433c.172 0 .337.069.459.19a.652.652 0 01.189.459v3.243a1.3 1.3 0 01-.379.918 1.3 1.3 0 01-.918.379zm-7.135-3.891v2.594h7.135v-2.594h-7.135zm-16.216 21.081h-8.433a.649.649 0 01-.648-.649v-3.243a1.297 1.297 0 011.297-1.298h7.135c.344 0 .674.137.918.38a1.3 1.3 0 01.379.918v3.243a.652.652 0 01-.189.459.653.653 0 01-.459.19zm-7.784-1.298h7.135v-2.594h-7.135v2.594zm7.135-15.892h-7.135a1.296 1.296 0 01-1.297-1.297v-3.243a.649.649 0 01.648-.649h8.433c.172 0 .337.069.459.19a.652.652 0 01.189.459v3.243a1.3 1.3 0 01-.379.918 1.3 1.3 0 01-.918.379zm-7.135-3.891v2.594h7.135v-2.594h-7.135z" fill="#000"/><path d="M990.756 546.595h-41.513a.653.653 0 01-.606-.42.653.653 0 01.178-.716l20.757-18.162a.65.65 0 01.855 0l20.757 18.162a.653.653 0 01-.06 1.02.653.653 0 01-.368.116zm-39.787-1.298h38.061L970 528.646l-19.031 16.651zm33.517 18.487h-4.972a.653.653 0 01-.649-.649v-13.297a.653.653 0 01.649-.649h4.972a.653.653 0 01.649.649v13.297a.649.649 0 01-.649.649zm-4.323-1.298h3.675v-12h-3.675v12zm-19.677 1.298h-4.972a.653.653 0 01-.649-.649v-13.297a.653.653 0 01.649-.649h4.972a.653.653 0 01.649.649v13.297a.649.649 0 01-.649.649zm-4.323-1.298h3.675v-12h-3.675v12z" fill="#000"/><path d="M970 542.378a3.89 3.89 0 01-3.817-4.651 3.896 3.896 0 013.058-3.058 3.891 3.891 0 11.759 7.709zm0-6.486a2.592 2.592 0 00-2.544 3.101 2.593 2.593 0 003.537 1.891 2.599 2.599 0 001.602-2.398 2.59 2.59 0 00-2.595-2.594z" fill="#000"/><rect x="920" y="468" width="100" height="24" rx="4" fill="#F6F7F8"/><path d="M932.41 484.154v-1.316c-1.241-.047-2.189-.373-2.842-.98-.644-.616-.966-1.461-.966-2.534 0-1.073.331-1.909.994-2.506.663-.607 1.601-.933 2.814-.98v-1.358h1.12v1.358c1.251.047 2.198.373 2.842.98.644.597.966 1.433.966 2.506 0 1.055-.322 1.895-.966 2.52-.644.616-1.591.947-2.842.994v1.316h-1.12zm1.12-2.254c.812-.009 1.461-.224 1.946-.644.495-.42.742-1.064.742-1.932 0-.42-.07-.789-.21-1.106a2.136 2.136 0 00-.56-.798 2.337 2.337 0 00-.84-.49 3.307 3.307 0 00-1.078-.168v5.138zm-1.12-5.138c-.821.019-1.475.243-1.96.672-.476.42-.714 1.05-.714 1.89 0 .859.247 1.503.742 1.932.495.42 1.139.635 1.932.644v-5.138zm7.923 7.098a3.101 3.101 0 01-.966-.798 3.559 3.559 0 01-.588-1.134 4.468 4.468 0 01-.014-2.576c.131-.42.327-.793.588-1.12.262-.327.584-.588.966-.784.392-.196.85-.294 1.372-.294.514 0 .966.103 1.358.308.392.196.714.457.966.784.262.327.458.7.588 1.12a4.3 4.3 0 01.196 1.288 4.3 4.3 0 01-.196 1.288c-.13.42-.326.793-.588 1.12a2.89 2.89 0 01-.966.798c-.392.196-.844.294-1.358.294-.513 0-.966-.098-1.358-.294zm-.182-1.4c.178.243.392.443.644.602.262.149.56.224.896.224.346 0 .644-.075.896-.224.262-.159.476-.359.644-.602.178-.252.308-.537.392-.854a3.756 3.756 0 000-1.932 2.48 2.48 0 00-.392-.84 1.884 1.884 0 00-.644-.602 1.727 1.727 0 00-.896-.224c-.345 0-.648.075-.91.224-.252.149-.462.35-.63.602a2.662 2.662 0 00-.378.84 3.6 3.6 0 00-.126.952c0 .336.042.663.126.98.084.317.21.602.378.854zm6.26 4.186v-9.324h.98l.084.49c.29-.233.593-.401.91-.504a3.383 3.383 0 011.022-.154c.495 0 .915.093 1.26.28.346.187.626.439.84.756.224.317.383.686.476 1.106.103.411.154.84.154 1.288 0 .541-.084 1.031-.252 1.47a3.404 3.404 0 01-.7 1.134 2.949 2.949 0 01-1.05.714c-.41.168-.854.252-1.33.252-.522 0-.961-.075-1.316-.224v2.716h-1.078zm1.078-3.654c.103.075.252.145.448.21.196.056.416.084.658.084.355 0 .682-.061.98-.182.308-.121.57-.294.784-.518.224-.224.397-.499.518-.826.122-.336.182-.714.182-1.134 0-.308-.032-.616-.098-.924a2.566 2.566 0 00-.322-.84 1.686 1.686 0 00-.602-.602c-.242-.159-.546-.238-.91-.238-.298 0-.588.065-.868.196s-.536.303-.77.518v4.256zm6.306 1.008v-6.678h1.26l2.1 4.886 2.072-4.886h1.246V484h-1.092v-4.872L957.239 484h-.252l-2.128-4.872V484h-1.064zm12.363 0l-.056-.574a2.547 2.547 0 01-.812.546c-.298.121-.63.182-.994.182-.289 0-.574-.047-.854-.14a2.264 2.264 0 01-.728-.378 2.105 2.105 0 01-.504-.658 2.018 2.018 0 01-.196-.91c0-.476.126-.868.378-1.176.262-.308.588-.551.98-.728a4.71 4.71 0 011.302-.392 8.9 8.9 0 011.386-.112v-.084c0-.56-.121-.961-.364-1.204-.233-.243-.574-.364-1.022-.364-.308 0-.592.07-.854.21a1.98 1.98 0 00-.644.532l-.756-.532c.271-.364.588-.63.952-.798.374-.177.84-.266 1.4-.266.747 0 1.326.191 1.736.574.42.383.63 1.022.63 1.918V484h-.98zm-.098-3.486a12.75 12.75 0 00-.98.07 3.942 3.942 0 00-.966.224 1.847 1.847 0 00-.728.462c-.186.205-.28.476-.28.812 0 .215.042.397.126.546.084.149.187.275.308.378.131.093.271.163.42.21.159.037.313.056.462.056.327 0 .626-.065.896-.196.28-.14.528-.303.742-.49v-2.072zm4.211 3.486v-5.796h-2.142v-.882h5.362v.882h-2.128V484h-1.092zm9.852-7.882c-.392.019-.709.107-.952.266a1.65 1.65 0 00-.574.588c-.14.233-.247.495-.322.784-.065.28-.121.56-.168.84.243-.327.537-.593.882-.798.355-.205.812-.308 1.372-.308.458 0 .864.084 1.218.252.364.168.668.401.91.7.252.299.439.653.56 1.064.131.401.196.84.196 1.316 0 .42-.065.831-.196 1.232-.13.392-.326.747-.588 1.064a3.01 3.01 0 01-.994.756c-.392.187-.849.28-1.372.28-.541 0-1.008-.098-1.4-.294a2.676 2.676 0 01-.952-.812 3.918 3.918 0 01-.546-1.246 7.03 7.03 0 01-.168-1.582c0-1.689.248-2.945.742-3.766.504-.821 1.307-1.246 2.408-1.274l.546-.014c.29-.009.514-.056.672-.14.159-.093.252-.275.28-.546l.84.154c-.037.56-.2.938-.49 1.134-.28.196-.69.303-1.232.322l-.672.028zm-1.484 6.356c.168.233.374.425.616.574.252.14.546.21.882.21.336 0 .63-.07.882-.21.262-.14.476-.327.644-.56.168-.233.294-.495.378-.784.084-.299.126-.597.126-.896 0-.299-.042-.593-.126-.882a2.352 2.352 0 00-.378-.784 1.866 1.866 0 00-.644-.56 1.787 1.787 0 00-.882-.21c-.336 0-.63.07-.882.21a1.779 1.779 0 00-.63.546 2.376 2.376 0 00-.378.77 3.6 3.6 0 00-.112.896c0 .299.042.597.126.896.084.289.21.551.378.784zm9.928 1.526l-.056-.574a2.558 2.558 0 01-.812.546c-.299.121-.63.182-.994.182a2.69 2.69 0 01-.854-.14 2.243 2.243 0 01-.728-.378 2.005 2.005 0 01-.7-1.568c0-.476.126-.868.378-1.176.261-.308.588-.551.98-.728a4.71 4.71 0 011.302-.392 8.9 8.9 0 011.386-.112v-.084c0-.56-.122-.961-.364-1.204-.234-.243-.574-.364-1.022-.364-.308 0-.593.07-.854.21a1.97 1.97 0 00-.644.532l-.756-.532c.27-.364.588-.63.952-.798.373-.177.84-.266 1.4-.266.746 0 1.325.191 1.736.574.42.383.63 1.022.63 1.918V484h-.98zm-.098-3.486c-.308.009-.635.033-.98.07a3.92 3.92 0 00-.966.224 1.84 1.84 0 00-.728.462c-.187.205-.28.476-.28.812 0 .215.042.397.126.546.084.149.186.275.308.378.13.093.27.163.42.21.158.037.312.056.462.056.326 0 .625-.065.896-.196.28-.14.527-.303.742-.49v-2.072zm3.006 3.486v-6.678h1.092v2.758h3.318v-2.758h1.092V484h-1.092v-3.038h-3.318V484h-1.092zm7.519 0v-6.678h1.076v2.744h.74c.12 0 .21-.019.28-.056a.58.58 0 00.24-.196c.08-.103.16-.243.24-.42.09-.177.21-.406.34-.686.13-.289.25-.523.37-.7.13-.187.25-.331.38-.434.14-.103.29-.168.45-.196.16-.037.34-.056.55-.056h.65v.882h-.4c-.25 0-.47.061-.65.182-.16.112-.33.355-.5.728-.19.392-.33.691-.43.896-.11.205-.21.355-.31.448l2.49 3.542h-1.29l-2.08-3.052h-1.07V484h-1.076zm10.256 0l-.05-.574c-.24.233-.51.415-.82.546-.29.121-.63.182-.99.182-.29 0-.57-.047-.85-.14-.27-.084-.52-.21-.73-.378a2.035 2.035 0 01-.51-.658 2.018 2.018 0 01-.19-.91c0-.476.12-.868.38-1.176.26-.308.58-.551.98-.728.39-.187.82-.317 1.3-.392.47-.075.94-.112 1.38-.112v-.084c0-.56-.12-.961-.36-1.204-.23-.243-.57-.364-1.02-.364-.31 0-.59.07-.86.21-.25.131-.46.308-.64.532l-.76-.532c.27-.364.59-.63.96-.798.37-.177.84-.266 1.4-.266.74 0 1.32.191 1.73.574.42.383.63 1.022.63 1.918V484h-.98zm-.1-3.486c-.3.009-.63.033-.98.07-.34.037-.66.112-.96.224-.29.103-.53.257-.73.462-.19.205-.28.476-.28.812 0 .215.04.397.13.546.08.149.18.275.3.378.13.093.27.163.42.21.16.037.32.056.47.056.32 0 .62-.065.89-.196.28-.14.53-.303.74-.49v-2.072z" fill="#7D878C"/><rect x="160" y="502" width="300" height="100" rx="12" fill="#ECECEC"/><path d="M286.356 625.576h5.016c.672 0 1.168-.136 1.488-.408.352-.32.528-.744.528-1.272s-.176-.944-.528-1.248c-.288-.24-.752-.36-1.392-.36h-5.112v3.288zm-2.52-10.296h10.848v2.424h-8.328v2.208h3.648c.848 0 1.496.016 1.944.048.464.032.976.144 1.536.336.56.176 1.032.448 1.416.816.72.704 1.08 1.64 1.08 2.808 0 1.2-.4 2.184-1.2 2.952-.784.752-1.872 1.128-3.264 1.128h-7.68v-12.72zm19.684 3.744l-1.68 3.408h3.384l-1.704-3.408zm4.464 8.976l-1.56-3.144h-5.784L299.128 628h-2.784l6.24-12.72h1.896l6.288 12.72h-2.784zm12.141 0v-5.712h-5.784V628h-2.544v-12.72h2.544v4.608h5.784v-4.608h2.544V628h-2.544zm15.115 0l-4.536-6.288-2.184 1.848V628H326v-12.72h2.52v5.256l6.12-5.256h3.336l-5.4 4.752 5.736 7.968h-3.072zm-5.132-55.135h-40.216a.649.649 0 01-.649-.649v-4.378a1.464 1.464 0 011.46-1.46h38.594c.387.001.758.155 1.032.428.273.274.427.645.428 1.032v4.378a.653.653 0 01-.649.649zm-39.568-1.297h38.919v-3.73a.165.165 0 00-.047-.115.165.165 0 00-.115-.047h-38.594a.164.164 0 00-.163.162v3.73z" fill="#000"/><path d="M326.216 567.676h-8.433a.649.649 0 01-.648-.649v-3.243a1.297 1.297 0 011.297-1.298h7.135c.344 0 .674.137.918.38a1.3 1.3 0 01.379.918v3.243a.652.652 0 01-.189.459.653.653 0 01-.459.19zm-7.784-1.298h7.135v-2.594h-7.135v2.594zm7.135-15.892h-7.135a1.296 1.296 0 01-1.297-1.297v-3.243a.649.649 0 01.648-.649h8.433c.172 0 .337.069.459.19a.652.652 0 01.189.459v3.243a1.3 1.3 0 01-.379.918 1.3 1.3 0 01-.918.379zm-7.135-3.891v2.594h7.135v-2.594h-7.135zm-16.216 21.081h-8.433a.649.649 0 01-.648-.649v-3.243a1.297 1.297 0 011.297-1.298h7.135c.344 0 .674.137.918.38a1.3 1.3 0 01.379.918v3.243a.652.652 0 01-.189.459.653.653 0 01-.459.19zm-7.784-1.298h7.135v-2.594h-7.135v2.594zm7.135-15.892h-7.135a1.296 1.296 0 01-1.297-1.297v-3.243a.649.649 0 01.648-.649h8.433c.172 0 .337.069.459.19a.652.652 0 01.189.459v3.243a1.3 1.3 0 01-.379.918 1.3 1.3 0 01-.918.379zm-7.135-3.891v2.594h7.135v-2.594h-7.135z" fill="#000"/><path d="M330.756 546.595h-41.513a.653.653 0 01-.606-.42.653.653 0 01.178-.716l20.757-18.162a.65.65 0 01.855 0l20.757 18.162a.653.653 0 01-.06 1.02.653.653 0 01-.368.116zm-39.787-1.298h38.061L310 528.646l-19.031 16.651zm33.517 18.487h-4.972a.653.653 0 01-.649-.649v-13.297a.653.653 0 01.649-.649h4.972a.653.653 0 01.649.649v13.297a.649.649 0 01-.649.649zm-4.323-1.298h3.675v-12h-3.675v12zm-19.677 1.298h-4.972a.653.653 0 01-.649-.649v-13.297a.653.653 0 01.649-.649h4.972a.653.653 0 01.649.649v13.297a.649.649 0 01-.649.649zm-4.323-1.298h3.675v-12h-3.675v12z" fill="#000"/><path d="M310 542.378a3.89 3.89 0 01-3.817-4.651 3.896 3.896 0 013.058-3.058 3.891 3.891 0 11.759 7.709zm0-6.486a2.592 2.592 0 00-2.544 3.101 2.593 2.593 0 003.537 1.891 2.599 2.599 0 001.602-2.398 2.59 2.59 0 00-2.595-2.594z" fill="#000"/><rect x="260" y="468" width="100" height="24" rx="4" fill="#F6F7F8"/><path d="M272.41 484.154v-1.316c-1.241-.047-2.189-.373-2.842-.98-.644-.616-.966-1.461-.966-2.534 0-1.073.331-1.909.994-2.506.663-.607 1.601-.933 2.814-.98v-1.358h1.12v1.358c1.251.047 2.198.373 2.842.98.644.597.966 1.433.966 2.506 0 1.055-.322 1.895-.966 2.52-.644.616-1.591.947-2.842.994v1.316h-1.12zm1.12-2.254c.812-.009 1.461-.224 1.946-.644.495-.42.742-1.064.742-1.932 0-.42-.07-.789-.21-1.106a2.136 2.136 0 00-.56-.798 2.337 2.337 0 00-.84-.49 3.307 3.307 0 00-1.078-.168v5.138zm-1.12-5.138c-.821.019-1.475.243-1.96.672-.476.42-.714 1.05-.714 1.89 0 .859.247 1.503.742 1.932.495.42 1.139.635 1.932.644v-5.138zm7.923 7.098a3.101 3.101 0 01-.966-.798 3.559 3.559 0 01-.588-1.134 4.468 4.468 0 01-.014-2.576c.131-.42.327-.793.588-1.12.262-.327.584-.588.966-.784.392-.196.85-.294 1.372-.294.514 0 .966.103 1.358.308.392.196.714.457.966.784.262.327.458.7.588 1.12a4.3 4.3 0 01.196 1.288 4.3 4.3 0 01-.196 1.288c-.13.42-.326.793-.588 1.12a2.89 2.89 0 01-.966.798c-.392.196-.844.294-1.358.294-.513 0-.966-.098-1.358-.294zm-.182-1.4c.178.243.392.443.644.602.262.149.56.224.896.224.346 0 .644-.075.896-.224.262-.159.476-.359.644-.602.178-.252.308-.537.392-.854a3.756 3.756 0 000-1.932 2.48 2.48 0 00-.392-.84 1.884 1.884 0 00-.644-.602 1.727 1.727 0 00-.896-.224c-.345 0-.648.075-.91.224-.252.149-.462.35-.63.602a2.662 2.662 0 00-.378.84 3.6 3.6 0 00-.126.952c0 .336.042.663.126.98.084.317.21.602.378.854zm6.26 4.186v-9.324h.98l.084.49c.29-.233.593-.401.91-.504a3.383 3.383 0 011.022-.154c.495 0 .915.093 1.26.28.346.187.626.439.84.756.224.317.383.686.476 1.106.103.411.154.84.154 1.288 0 .541-.084 1.031-.252 1.47a3.404 3.404 0 01-.7 1.134 2.949 2.949 0 01-1.05.714c-.41.168-.854.252-1.33.252-.522 0-.961-.075-1.316-.224v2.716h-1.078zm1.078-3.654c.103.075.252.145.448.21.196.056.416.084.658.084.355 0 .682-.061.98-.182.308-.121.57-.294.784-.518.224-.224.397-.499.518-.826.122-.336.182-.714.182-1.134 0-.308-.032-.616-.098-.924a2.566 2.566 0 00-.322-.84 1.686 1.686 0 00-.602-.602c-.242-.159-.546-.238-.91-.238-.298 0-.588.065-.868.196s-.536.303-.77.518v4.256zm6.306 1.008v-6.678h1.26l2.1 4.886 2.072-4.886h1.246V484h-1.092v-4.872L297.239 484h-.252l-2.128-4.872V484h-1.064zm12.363 0l-.056-.574a2.547 2.547 0 01-.812.546c-.298.121-.63.182-.994.182-.289 0-.574-.047-.854-.14a2.264 2.264 0 01-.728-.378 2.105 2.105 0 01-.504-.658 2.018 2.018 0 01-.196-.91c0-.476.126-.868.378-1.176.262-.308.588-.551.98-.728a4.71 4.71 0 011.302-.392 8.9 8.9 0 011.386-.112v-.084c0-.56-.121-.961-.364-1.204-.233-.243-.574-.364-1.022-.364-.308 0-.592.07-.854.21a1.98 1.98 0 00-.644.532l-.756-.532c.271-.364.588-.63.952-.798.374-.177.84-.266 1.4-.266.747 0 1.326.191 1.736.574.42.383.63 1.022.63 1.918V484h-.98zm-.098-3.486a12.75 12.75 0 00-.98.07 3.942 3.942 0 00-.966.224 1.847 1.847 0 00-.728.462c-.186.205-.28.476-.28.812 0 .215.042.397.126.546.084.149.187.275.308.378.131.093.271.163.42.21.159.037.313.056.462.056.327 0 .626-.065.896-.196.28-.14.528-.303.742-.49v-2.072zm4.211 3.486v-5.796h-2.142v-.882h5.362v.882h-2.128V484h-1.092zm9.852-7.882c-.392.019-.709.107-.952.266a1.65 1.65 0 00-.574.588c-.14.233-.247.495-.322.784-.065.28-.121.56-.168.84.243-.327.537-.593.882-.798.355-.205.812-.308 1.372-.308.458 0 .864.084 1.218.252.364.168.668.401.91.7.252.299.439.653.56 1.064.131.401.196.84.196 1.316 0 .42-.065.831-.196 1.232-.13.392-.326.747-.588 1.064a3.01 3.01 0 01-.994.756c-.392.187-.849.28-1.372.28-.541 0-1.008-.098-1.4-.294a2.676 2.676 0 01-.952-.812 3.918 3.918 0 01-.546-1.246 7.03 7.03 0 01-.168-1.582c0-1.689.248-2.945.742-3.766.504-.821 1.307-1.246 2.408-1.274l.546-.014c.29-.009.514-.056.672-.14.159-.093.252-.275.28-.546l.84.154c-.037.56-.2.938-.49 1.134-.28.196-.69.303-1.232.322l-.672.028zm-1.484 6.356c.168.233.374.425.616.574.252.14.546.21.882.21.336 0 .63-.07.882-.21.262-.14.476-.327.644-.56.168-.233.294-.495.378-.784.084-.299.126-.597.126-.896 0-.299-.042-.593-.126-.882a2.352 2.352 0 00-.378-.784 1.866 1.866 0 00-.644-.56 1.787 1.787 0 00-.882-.21c-.336 0-.63.07-.882.21a1.779 1.779 0 00-.63.546 2.376 2.376 0 00-.378.77 3.6 3.6 0 00-.112.896c0 .299.042.597.126.896.084.289.21.551.378.784zm9.928 1.526l-.056-.574a2.558 2.558 0 01-.812.546c-.299.121-.63.182-.994.182a2.69 2.69 0 01-.854-.14 2.243 2.243 0 01-.728-.378 2.005 2.005 0 01-.7-1.568c0-.476.126-.868.378-1.176.261-.308.588-.551.98-.728a4.71 4.71 0 011.302-.392 8.9 8.9 0 011.386-.112v-.084c0-.56-.122-.961-.364-1.204-.234-.243-.574-.364-1.022-.364-.308 0-.593.07-.854.21a1.97 1.97 0 00-.644.532l-.756-.532c.27-.364.588-.63.952-.798.373-.177.84-.266 1.4-.266.746 0 1.325.191 1.736.574.42.383.63 1.022.63 1.918V484h-.98zm-.098-3.486c-.308.009-.635.033-.98.07a3.92 3.92 0 00-.966.224 1.84 1.84 0 00-.728.462c-.187.205-.28.476-.28.812 0 .215.042.397.126.546.084.149.186.275.308.378.13.093.27.163.42.21.158.037.312.056.462.056.326 0 .625-.065.896-.196.28-.14.527-.303.742-.49v-2.072zm3.006 3.486v-6.678h1.092v2.758h3.318v-2.758h1.092V484h-1.092v-3.038h-3.318V484h-1.092zm7.519 0v-6.678h1.078v2.744h.742a.626.626 0 00.28-.056.645.645 0 00.238-.196c.075-.103.154-.243.238-.42.094-.177.206-.406.336-.686.131-.289.257-.523.378-.7.122-.187.248-.331.378-.434.14-.103.29-.168.448-.196a2.42 2.42 0 01.546-.056h.658v.882h-.406c-.252 0-.466.061-.644.182-.168.112-.336.355-.504.728-.186.392-.331.691-.434.896a1.52 1.52 0 01-.308.448L344.51 484h-1.288l-2.086-3.052h-1.064V484h-1.078zm10.258 0l-.056-.574a2.547 2.547 0 01-.812.546c-.298.121-.63.182-.994.182-.289 0-.574-.047-.854-.14a2.264 2.264 0 01-.728-.378 2.105 2.105 0 01-.504-.658 2.018 2.018 0 01-.196-.91c0-.476.126-.868.378-1.176.262-.308.588-.551.98-.728a4.71 4.71 0 011.302-.392 8.9 8.9 0 011.386-.112v-.084c0-.56-.121-.961-.364-1.204-.233-.243-.574-.364-1.022-.364-.308 0-.592.07-.854.21a1.98 1.98 0 00-.644.532l-.756-.532c.271-.364.588-.63.952-.798.374-.177.84-.266 1.4-.266.747 0 1.326.191 1.736.574.42.383.63 1.022.63 1.918V484h-.98zm-.098-3.486a12.75 12.75 0 00-.98.07 3.942 3.942 0 00-.966.224 1.847 1.847 0 00-.728.462c-.186.205-.28.476-.28.812 0 .215.042.397.126.546.084.149.187.275.308.378.131.093.271.163.42.21.159.037.313.056.462.056.327 0 .626-.065.896-.196.28-.14.528-.303.742-.49v-2.072z" fill="#7D878C"/><path fill="#000" d="M639 226.243h2v52h-2z"/><path fill-rule="evenodd" clip-rule="evenodd" d="M642.836 229.657l1.414-1.414-2.828-2.829-1.415-1.414-1.414 1.414-2.828 2.829 1.414 1.414 2.828-2.829 2.829 2.829zm-5.657 45.171l-1.414 1.415 2.828 2.828 1.414 1.414 1.415-1.414 2.828-2.828-1.414-1.415-2.829 2.829-2.828-2.829z" fill="#000"/><path fill="#000" d="M639 387h2v72h-2z"/><path fill-rule="evenodd" clip-rule="evenodd" d="M642.836 390.657l1.414-1.414-2.828-2.829-1.415-1.414-1.414 1.414-2.828 2.829 1.414 1.414 2.828-2.829 2.829 2.829zm-5.657 65.171l-1.414 1.415 2.828 2.828 1.414 1.414 1.415-1.414 2.828-2.828-1.414-1.415-2.829 2.829-2.828-2.829z" fill="#000"/><path fill="#000" d="M969 316h2v143h-2z"/><path fill-rule="evenodd" clip-rule="evenodd" d="M967.414 455.828L966 457.243l2.828 2.828 1.415 1.414 1.414-1.414 2.828-2.828-1.414-1.415-2.828 2.829-2.829-2.829z" fill="#000"/><path fill="#000" d="M679 316h292v2H679z"/><path fill-rule="evenodd" clip-rule="evenodd" d="M682.414 314.174L681 312.76l-2.828 2.828-1.415 1.415 1.415 1.414 2.828 2.828 1.414-1.414-2.828-2.828 2.828-2.829z" fill="#000"/><path fill="#000" d="M311.486 316h-2v143h2z"/><path fill-rule="evenodd" clip-rule="evenodd" d="M313.072 455.828l1.414 1.415-2.828 2.828-1.414 1.414-1.415-1.414-2.828-2.828 1.414-1.415 2.829 2.829 2.828-2.829z" fill="#000"/><path fill="#000" d="M601.486 316h-292v2h292z"/><path fill-rule="evenodd" clip-rule="evenodd" d="M598.072 314.174l1.414-1.414 2.829 2.828 1.414 1.415-1.414 1.414-2.829 2.828-1.414-1.414 2.829-2.828-2.829-2.829z" fill="#000"/><defs><linearGradient id="paint0_linear_234_2487" x1="644.95" y1="321.941" x2="640.079" y2="317.062" gradientUnits="userSpaceOnUse"><stop stop-color="#fff"/><stop offset="1" stop-color="#DB0626"/></linearGradient><linearGradient id="paint1_linear_234_2487" x1="635.153" y1="312.16" x2="640.025" y2="317.04" gradientUnits="userSpaceOnUse"><stop stop-color="#fff"/><stop offset="1" stop-color="#DB0626"/></linearGradient></defs></svg>